<svg width="644" height="438" viewBox="0 0 644 438" fill="none" xmlns="http://www.w3.org/2000/svg">
<path d="M6.51172 438H634.812C634.812 438 616.709 336.448 546.947 339.097C477.185 341.746 519.175 265.229 514.274 213.702C508.092 148.796 343.577 74.8398 285.119 215.026C250.679 297.593 206.084 278.165 172.528 269.776C153.498 265.008 123.076 285.23 127.933 334.24C135.66 412.259 109.83 417.69 73.6246 409.742C37.419 401.794 6.51172 438 6.51172 438Z" fill="url(#paint0_linear_2542_708)"/>
<path d="M232.398 0H54.6367V203.988H232.398V0Z" fill="url(#paint1_linear_2542_708)"/>
<path d="M232.398 73.9126V203.988H54.6367V113.606C66.2932 100.625 83.0273 89.8961 102.366 101.641C139.543 124.203 140.956 123.497 165.02 110.383C186.478 98.6826 202.727 74.7515 232.398 73.9126Z" fill="url(#paint2_linear_2542_708)"/>
<path d="M156.234 0H143.871V203.988H156.234V0Z" fill="url(#paint3_linear_2542_708)"/>
<path d="M149.344 0H139.145V203.988H149.344V0Z" fill="#FCFDFF"/>
<path d="M64.1297 0H54.6367V203.988H64.1297V0Z" fill="url(#paint4_linear_2542_708)"/>
<path d="M232.398 12.4072H54.6367V20.3989H232.398V12.4072Z" fill="#FCFDFF"/>
<path d="M232.398 29.4941H54.6367V37.4858H232.398V29.4941Z" fill="#FCFDFF"/>
<path d="M232.398 46.979H54.6367V54.9708H232.398V46.979Z" fill="#FCFDFF"/>
<path d="M232.398 64.4639H54.6367V72.4556H232.398V64.4639Z" fill="#FCFDFF"/>
<path d="M412.762 247.037V403.56H424.639V247.258L412.762 247.037Z" fill="url(#paint5_linear_2542_708)"/>
<path d="M500.583 44.0649H327.723V248.803H500.583V44.0649Z" fill="#011F6F"/>
<path d="M376.016 93.144C375.16 93.144 374.384 92.96 373.688 92.592C373 92.216 372.456 91.7 372.056 91.044C371.664 90.38 371.468 89.632 371.468 88.8C371.468 87.968 371.664 87.224 372.056 86.568C372.456 85.904 373 85.388 373.688 85.02C374.384 84.644 375.164 84.456 376.028 84.456C376.756 84.456 377.412 84.584 377.996 84.84C378.588 85.096 379.084 85.464 379.484 85.944L378.236 87.096C377.668 86.44 376.964 86.112 376.124 86.112C375.604 86.112 375.14 86.228 374.732 86.46C374.324 86.684 374.004 87 373.772 87.408C373.548 87.816 373.436 88.28 373.436 88.8C373.436 89.32 373.548 89.784 373.772 90.192C374.004 90.6 374.324 90.92 374.732 91.152C375.14 91.376 375.604 91.488 376.124 91.488C376.964 91.488 377.668 91.156 378.236 90.492L379.484 91.644C379.084 92.132 378.588 92.504 377.996 92.76C377.404 93.016 376.744 93.144 376.016 93.144ZM382.981 93.096C382.253 93.096 381.685 92.904 381.277 92.52C380.869 92.128 380.665 91.576 380.665 90.864V84.096H382.537V90.756C382.537 91.028 382.605 91.24 382.741 91.392C382.885 91.536 383.085 91.608 383.341 91.608C383.437 91.608 383.533 91.596 383.629 91.572C383.733 91.548 383.813 91.52 383.869 91.488L383.953 92.94C383.641 93.044 383.317 93.096 382.981 93.096ZM384.872 86.544H386.744V93H384.872V86.544ZM385.808 85.644C385.464 85.644 385.184 85.544 384.968 85.344C384.752 85.144 384.644 84.896 384.644 84.6C384.644 84.304 384.752 84.056 384.968 83.856C385.184 83.656 385.464 83.556 385.808 83.556C386.152 83.556 386.432 83.652 386.648 83.844C386.864 84.036 386.972 84.276 386.972 84.564C386.972 84.876 386.864 85.136 386.648 85.344C386.432 85.544 386.152 85.644 385.808 85.644ZM392.405 86.448C393.205 86.448 393.849 86.688 394.337 87.168C394.833 87.648 395.081 88.36 395.081 89.304V93H393.209V89.592C393.209 89.08 393.097 88.7 392.873 88.452C392.649 88.196 392.325 88.068 391.901 88.068C391.429 88.068 391.053 88.216 390.773 88.512C390.493 88.8 390.353 89.232 390.353 89.808V93H388.481V86.544H390.269V87.3C390.517 87.028 390.825 86.82 391.193 86.676C391.561 86.524 391.965 86.448 392.405 86.448ZM396.778 86.544H398.65V93H396.778V86.544ZM397.714 85.644C397.37 85.644 397.09 85.544 396.874 85.344C396.658 85.144 396.55 84.896 396.55 84.6C396.55 84.304 396.658 84.056 396.874 83.856C397.09 83.656 397.37 83.556 397.714 83.556C398.058 83.556 398.338 83.652 398.554 83.844C398.77 84.036 398.878 84.276 398.878 84.564C398.878 84.876 398.77 85.136 398.554 85.344C398.338 85.544 398.058 85.644 397.714 85.644ZM407.047 86.544V91.92C407.047 93.104 406.739 93.984 406.123 94.56C405.507 95.136 404.607 95.424 403.423 95.424C402.799 95.424 402.207 95.348 401.647 95.196C401.087 95.044 400.623 94.824 400.255 94.536L400.999 93.192C401.271 93.416 401.615 93.592 402.031 93.72C402.447 93.856 402.863 93.924 403.279 93.924C403.927 93.924 404.403 93.776 404.707 93.48C405.019 93.192 405.175 92.752 405.175 92.16V91.884C404.687 92.42 404.007 92.688 403.135 92.688C402.543 92.688 401.999 92.56 401.503 92.304C401.015 92.04 400.627 91.672 400.339 91.2C400.051 90.728 399.907 90.184 399.907 89.568C399.907 88.952 400.051 88.408 400.339 87.936C400.627 87.464 401.015 87.1 401.503 86.844C401.999 86.58 402.543 86.448 403.135 86.448C404.071 86.448 404.783 86.756 405.271 87.372V86.544H407.047ZM403.507 91.152C404.003 91.152 404.407 91.008 404.719 90.72C405.039 90.424 405.199 90.04 405.199 89.568C405.199 89.096 405.039 88.716 404.719 88.428C404.407 88.132 404.003 87.984 403.507 87.984C403.011 87.984 402.603 88.132 402.283 88.428C401.963 88.716 401.803 89.096 401.803 89.568C401.803 90.04 401.963 90.424 402.283 90.72C402.603 91.008 403.011 91.152 403.507 91.152ZM411.862 93.096C411.182 93.096 410.57 92.956 410.026 92.676C409.49 92.388 409.07 91.992 408.766 91.488C408.462 90.984 408.31 90.412 408.31 89.772C408.31 89.132 408.462 88.56 408.766 88.056C409.07 87.552 409.49 87.16 410.026 86.88C410.57 86.592 411.182 86.448 411.862 86.448C412.542 86.448 413.15 86.592 413.686 86.88C414.222 87.16 414.642 87.552 414.946 88.056C415.25 88.56 415.402 89.132 415.402 89.772C415.402 90.412 415.25 90.984 414.946 91.488C414.642 91.992 414.222 92.388 413.686 92.676C413.15 92.956 412.542 93.096 411.862 93.096ZM411.862 91.56C412.342 91.56 412.734 91.4 413.038 91.08C413.35 90.752 413.506 90.316 413.506 89.772C413.506 89.228 413.35 88.796 413.038 88.476C412.734 88.148 412.342 87.984 411.862 87.984C411.382 87.984 410.986 88.148 410.674 88.476C410.362 88.796 410.206 89.228 410.206 89.772C410.206 90.316 410.362 90.752 410.674 91.08C410.986 91.4 411.382 91.56 411.862 91.56ZM429.772 84.456C430.764 84.456 431.536 84.748 432.088 85.332C432.64 85.908 432.916 86.744 432.916 87.84V93H430.972V87.9C430.972 87.308 430.816 86.864 430.504 86.568C430.2 86.264 429.796 86.112 429.292 86.112C428.74 86.112 428.3 86.272 427.972 86.592C427.644 86.904 427.48 87.38 427.48 88.02V93H425.536V87.9C425.536 87.308 425.392 86.864 425.104 86.568C424.816 86.264 424.424 86.112 423.928 86.112C423.384 86.112 422.948 86.272 422.62 86.592C422.292 86.904 422.128 87.38 422.128 88.02V93H420.184V84.6H422.068V85.632C422.324 85.256 422.664 84.968 423.088 84.768C423.512 84.56 424 84.456 424.552 84.456C425.128 84.456 425.632 84.564 426.064 84.78C426.496 84.988 426.828 85.292 427.06 85.692C427.348 85.292 427.724 84.988 428.188 84.78C428.66 84.564 429.188 84.456 429.772 84.456ZM437.952 91.596C438.288 91.596 438.584 91.548 438.84 91.452C439.104 91.348 439.348 91.188 439.572 90.972L440.568 92.052C439.96 92.748 439.072 93.096 437.904 93.096C437.176 93.096 436.532 92.956 435.972 92.676C435.412 92.388 434.98 91.992 434.676 91.488C434.372 90.984 434.22 90.412 434.22 89.772C434.22 89.14 434.368 88.572 434.664 88.068C434.968 87.556 435.38 87.16 435.9 86.88C436.428 86.592 437.02 86.448 437.676 86.448C438.292 86.448 438.852 86.58 439.356 86.844C439.86 87.1 440.26 87.476 440.556 87.972C440.86 88.46 441.012 89.04 441.012 89.712L436.236 90.636C436.372 90.956 436.584 91.196 436.872 91.356C437.168 91.516 437.528 91.596 437.952 91.596ZM437.676 87.864C437.204 87.864 436.82 88.016 436.524 88.32C436.228 88.624 436.072 89.044 436.056 89.58L439.2 88.968C439.112 88.632 438.932 88.364 438.66 88.164C438.388 87.964 438.06 87.864 437.676 87.864ZM448.846 84.096V93H447.058V92.256C446.594 92.816 445.922 93.096 445.042 93.096C444.434 93.096 443.882 92.96 443.386 92.688C442.898 92.416 442.514 92.028 442.234 91.524C441.954 91.02 441.814 90.436 441.814 89.772C441.814 89.108 441.954 88.524 442.234 88.02C442.514 87.516 442.898 87.128 443.386 86.856C443.882 86.584 444.434 86.448 445.042 86.448C445.866 86.448 446.51 86.708 446.974 87.228V84.096H448.846ZM445.366 91.56C445.838 91.56 446.23 91.4 446.542 91.08C446.854 90.752 447.01 90.316 447.01 89.772C447.01 89.228 446.854 88.796 446.542 88.476C446.23 88.148 445.838 87.984 445.366 87.984C444.886 87.984 444.49 88.148 444.178 88.476C443.866 88.796 443.71 89.228 443.71 89.772C443.71 90.316 443.866 90.752 444.178 91.08C444.49 91.4 444.886 91.56 445.366 91.56ZM450.579 86.544H452.451V93H450.579V86.544ZM451.515 85.644C451.171 85.644 450.891 85.544 450.675 85.344C450.459 85.144 450.351 84.896 450.351 84.6C450.351 84.304 450.459 84.056 450.675 83.856C450.891 83.656 451.171 83.556 451.515 83.556C451.859 83.556 452.139 83.652 452.355 83.844C452.571 84.036 452.679 84.276 452.679 84.564C452.679 84.876 452.571 85.136 452.355 85.344C452.139 85.544 451.859 85.644 451.515 85.644ZM457.308 93.096C456.62 93.096 456 92.956 455.448 92.676C454.904 92.388 454.476 91.992 454.164 91.488C453.86 90.984 453.708 90.412 453.708 89.772C453.708 89.132 453.86 88.56 454.164 88.056C454.476 87.552 454.904 87.16 455.448 86.88C456 86.592 456.62 86.448 457.308 86.448C457.988 86.448 458.58 86.592 459.084 86.88C459.596 87.16 459.968 87.564 460.2 88.092L458.748 88.872C458.412 88.28 457.928 87.984 457.296 87.984C456.808 87.984 456.404 88.144 456.084 88.464C455.764 88.784 455.604 89.22 455.604 89.772C455.604 90.324 455.764 90.76 456.084 91.08C456.404 91.4 456.808 91.56 457.296 91.56C457.936 91.56 458.42 91.264 458.748 90.672L460.2 91.464C459.968 91.976 459.596 92.376 459.084 92.664C458.58 92.952 457.988 93.096 457.308 93.096ZM467.748 86.544V93H465.96V92.256C465.496 92.816 464.824 93.096 463.944 93.096C463.336 93.096 462.784 92.96 462.288 92.688C461.8 92.416 461.416 92.028 461.136 91.524C460.856 91.02 460.716 90.436 460.716 89.772C460.716 89.108 460.856 88.524 461.136 88.02C461.416 87.516 461.8 87.128 462.288 86.856C462.784 86.584 463.336 86.448 463.944 86.448C464.768 86.448 465.412 86.708 465.876 87.228V86.544H467.748ZM464.268 91.56C464.74 91.56 465.132 91.4 465.444 91.08C465.756 90.752 465.912 90.316 465.912 89.772C465.912 89.228 465.756 88.796 465.444 88.476C465.132 88.148 464.74 87.984 464.268 87.984C463.788 87.984 463.392 88.148 463.08 88.476C462.768 88.796 462.612 89.228 462.612 89.772C462.612 90.316 462.768 90.752 463.08 91.08C463.392 91.4 463.788 91.56 464.268 91.56ZM471.797 93.096C471.069 93.096 470.501 92.904 470.093 92.52C469.685 92.128 469.481 91.576 469.481 90.864V84.096H471.353V90.756C471.353 91.028 471.421 91.24 471.557 91.392C471.701 91.536 471.901 91.608 472.157 91.608C472.253 91.608 472.349 91.596 472.445 91.572C472.549 91.548 472.629 91.52 472.685 91.488L472.769 92.94C472.457 93.044 472.133 93.096 471.797 93.096Z" fill="white"/>
<path d="M389.91 68V72.21C389.91 73.1567 389.673 73.8733 389.2 74.36C388.733 74.84 388.063 75.08 387.19 75.08C386.677 75.08 386.223 74.99 385.83 74.81C385.443 74.6233 385.147 74.37 384.94 74.05C384.727 74.37 384.43 74.6233 384.05 74.81C383.67 74.99 383.22 75.08 382.7 75.08C381.827 75.08 381.157 74.84 380.69 74.36C380.223 73.8733 379.99 73.1567 379.99 72.21V68H380.99V72.18C380.99 73.52 381.56 74.19 382.7 74.19C383.253 74.19 383.683 74.0267 383.99 73.7C384.297 73.3733 384.45 72.8667 384.45 72.18V68H385.45V72.18C385.45 72.8667 385.6 73.3733 385.9 73.7C386.207 74.0267 386.637 74.19 387.19 74.19C388.337 74.19 388.91 73.52 388.91 72.18V68H389.91ZM394.204 74.22C394.838 74.22 395.348 74.0067 395.734 73.58L396.254 74.2C396.021 74.48 395.724 74.6933 395.364 74.84C395.011 74.9867 394.614 75.06 394.174 75.06C393.614 75.06 393.118 74.9467 392.684 74.72C392.251 74.4867 391.914 74.1633 391.674 73.75C391.441 73.3367 391.324 72.87 391.324 72.35C391.324 71.8367 391.438 71.3733 391.664 70.96C391.898 70.5467 392.214 70.2267 392.614 70C393.021 69.7667 393.478 69.65 393.984 69.65C394.464 69.65 394.901 69.76 395.294 69.98C395.688 70.1933 396.001 70.4967 396.234 70.89C396.468 71.2833 396.588 71.7367 396.594 72.25L392.384 73.07C392.518 73.4367 392.741 73.72 393.054 73.92C393.374 74.12 393.758 74.22 394.204 74.22ZM393.984 70.46C393.651 70.46 393.351 70.5367 393.084 70.69C392.824 70.8433 392.621 71.06 392.474 71.34C392.328 71.6133 392.254 71.9333 392.254 72.3V72.4L395.644 71.76C395.558 71.3733 395.364 71.06 395.064 70.82C394.764 70.58 394.404 70.46 393.984 70.46ZM399.547 75.06C399.034 75.06 398.637 74.92 398.357 74.64C398.077 74.3533 397.937 73.9533 397.937 73.44V67.58H398.897V73.36C398.897 73.6467 398.964 73.8667 399.097 74.02C399.237 74.1733 399.444 74.25 399.717 74.25C399.884 74.25 400.041 74.2167 400.187 74.15L400.237 74.94C400.017 75.02 399.787 75.06 399.547 75.06ZM403.363 75.06C402.823 75.06 402.339 74.9433 401.913 74.71C401.493 74.4767 401.163 74.1567 400.923 73.75C400.683 73.3367 400.563 72.87 400.563 72.35C400.563 71.83 400.683 71.3667 400.923 70.96C401.163 70.5467 401.493 70.2267 401.913 70C402.339 69.7667 402.823 69.65 403.363 69.65C403.843 69.65 404.269 69.7467 404.643 69.94C405.023 70.1333 405.316 70.4133 405.523 70.78L404.793 71.25C404.626 70.9967 404.419 70.8067 404.173 70.68C403.926 70.5533 403.653 70.49 403.353 70.49C403.006 70.49 402.693 70.5667 402.413 70.72C402.139 70.8733 401.923 71.0933 401.763 71.38C401.609 71.66 401.533 71.9833 401.533 72.35C401.533 72.7233 401.609 73.0533 401.763 73.34C401.923 73.62 402.139 73.8367 402.413 73.99C402.693 74.1433 403.006 74.22 403.353 74.22C403.653 74.22 403.926 74.1567 404.173 74.03C404.419 73.9033 404.626 73.7133 404.793 73.46L405.523 73.92C405.316 74.2867 405.023 74.57 404.643 74.77C404.269 74.9633 403.843 75.06 403.363 75.06ZM408.957 75.06C408.431 75.06 407.957 74.9433 407.537 74.71C407.117 74.4767 406.787 74.1567 406.547 73.75C406.314 73.3367 406.197 72.87 406.197 72.35C406.197 71.83 406.314 71.3667 406.547 70.96C406.787 70.5467 407.117 70.2267 407.537 70C407.957 69.7667 408.431 69.65 408.957 69.65C409.484 69.65 409.954 69.7667 410.367 70C410.787 70.2267 411.114 70.5467 411.347 70.96C411.587 71.3667 411.707 71.83 411.707 72.35C411.707 72.87 411.587 73.3367 411.347 73.75C411.114 74.1567 410.787 74.4767 410.367 74.71C409.954 74.9433 409.484 75.06 408.957 75.06ZM408.957 74.22C409.297 74.22 409.601 74.1433 409.867 73.99C410.141 73.83 410.354 73.61 410.507 73.33C410.661 73.0433 410.737 72.7167 410.737 72.35C410.737 71.9833 410.661 71.66 410.507 71.38C410.354 71.0933 410.141 70.8733 409.867 70.72C409.601 70.5667 409.297 70.49 408.957 70.49C408.617 70.49 408.311 70.5667 408.037 70.72C407.771 70.8733 407.557 71.0933 407.397 71.38C407.244 71.66 407.167 71.9833 407.167 72.35C407.167 72.7167 407.244 73.0433 407.397 73.33C407.557 73.61 407.771 73.83 408.037 73.99C408.311 74.1433 408.617 74.22 408.957 74.22ZM419.665 69.65C420.332 69.65 420.858 69.8433 421.245 70.23C421.638 70.6167 421.835 71.19 421.835 71.95V75H420.875V72.06C420.875 71.5467 420.755 71.16 420.515 70.9C420.282 70.64 419.945 70.51 419.505 70.51C419.018 70.51 418.632 70.6633 418.345 70.97C418.058 71.27 417.915 71.7033 417.915 72.27V75H416.955V72.06C416.955 71.5467 416.835 71.16 416.595 70.9C416.362 70.64 416.025 70.51 415.585 70.51C415.098 70.51 414.712 70.6633 414.425 70.97C414.138 71.27 413.995 71.7033 413.995 72.27V75H413.035V69.7H413.955V70.49C414.148 70.2167 414.402 70.01 414.715 69.87C415.028 69.7233 415.385 69.65 415.785 69.65C416.198 69.65 416.565 69.7333 416.885 69.9C417.205 70.0667 417.452 70.31 417.625 70.63C417.825 70.3233 418.102 70.0833 418.455 69.91C418.815 69.7367 419.218 69.65 419.665 69.65ZM426.021 74.22C426.654 74.22 427.164 74.0067 427.551 73.58L428.071 74.2C427.837 74.48 427.541 74.6933 427.181 74.84C426.827 74.9867 426.431 75.06 425.991 75.06C425.431 75.06 424.934 74.9467 424.501 74.72C424.067 74.4867 423.731 74.1633 423.491 73.75C423.257 73.3367 423.141 72.87 423.141 72.35C423.141 71.8367 423.254 71.3733 423.481 70.96C423.714 70.5467 424.031 70.2267 424.431 70C424.837 69.7667 425.294 69.65 425.801 69.65C426.281 69.65 426.717 69.76 427.111 69.98C427.504 70.1933 427.817 70.4967 428.051 70.89C428.284 71.2833 428.404 71.7367 428.411 72.25L424.201 73.07C424.334 73.4367 424.557 73.72 424.871 73.92C425.191 74.12 425.574 74.22 426.021 74.22ZM425.801 70.46C425.467 70.46 425.167 70.5367 424.901 70.69C424.641 70.8433 424.437 71.06 424.291 71.34C424.144 71.6133 424.071 71.9333 424.071 72.3V72.4L427.461 71.76C427.374 71.3733 427.181 71.06 426.881 70.82C426.581 70.58 426.221 70.46 425.801 70.46ZM435.229 74.69C435.089 74.81 434.916 74.9033 434.709 74.97C434.503 75.03 434.289 75.06 434.069 75.06C433.536 75.06 433.123 74.9167 432.829 74.63C432.536 74.3433 432.389 73.9333 432.389 73.4V68.54H433.349V69.7H434.869V70.49H433.349V73.36C433.349 73.6467 433.419 73.8667 433.559 74.02C433.706 74.1733 433.913 74.25 434.179 74.25C434.473 74.25 434.723 74.1667 434.929 74L435.229 74.69ZM438.479 75.06C437.952 75.06 437.479 74.9433 437.059 74.71C436.639 74.4767 436.309 74.1567 436.069 73.75C435.835 73.3367 435.719 72.87 435.719 72.35C435.719 71.83 435.835 71.3667 436.069 70.96C436.309 70.5467 436.639 70.2267 437.059 70C437.479 69.7667 437.952 69.65 438.479 69.65C439.005 69.65 439.475 69.7667 439.889 70C440.309 70.2267 440.635 70.5467 440.869 70.96C441.109 71.3667 441.229 71.83 441.229 72.35C441.229 72.87 441.109 73.3367 440.869 73.75C440.635 74.1567 440.309 74.4767 439.889 74.71C439.475 74.9433 439.005 75.06 438.479 75.06ZM438.479 74.22C438.819 74.22 439.122 74.1433 439.389 73.99C439.662 73.83 439.875 73.61 440.029 73.33C440.182 73.0433 440.259 72.7167 440.259 72.35C440.259 71.9833 440.182 71.66 440.029 71.38C439.875 71.0933 439.662 70.8733 439.389 70.72C439.122 70.5667 438.819 70.49 438.479 70.49C438.139 70.49 437.832 70.5667 437.559 70.72C437.292 70.8733 437.079 71.0933 436.919 71.38C436.765 71.66 436.689 71.9833 436.689 72.35C436.689 72.7167 436.765 73.0433 436.919 73.33C437.079 73.61 437.292 73.83 437.559 73.99C437.832 74.1433 438.139 74.22 438.479 74.22ZM447.512 75.06C446.985 75.06 446.512 74.9433 446.092 74.71C445.672 74.4767 445.342 74.1567 445.102 73.75C444.869 73.3367 444.752 72.87 444.752 72.35C444.752 71.83 444.869 71.3667 445.102 70.96C445.342 70.5467 445.672 70.2267 446.092 70C446.512 69.7667 446.985 69.65 447.512 69.65C448.039 69.65 448.509 69.7667 448.922 70C449.342 70.2267 449.669 70.5467 449.902 70.96C450.142 71.3667 450.262 71.83 450.262 72.35C450.262 72.87 450.142 73.3367 449.902 73.75C449.669 74.1567 449.342 74.4767 448.922 74.71C448.509 74.9433 448.039 75.06 447.512 75.06ZM447.512 74.22C447.852 74.22 448.155 74.1433 448.422 73.99C448.695 73.83 448.909 73.61 449.062 73.33C449.215 73.0433 449.292 72.7167 449.292 72.35C449.292 71.9833 449.215 71.66 449.062 71.38C448.909 71.0933 448.695 70.8733 448.422 70.72C448.155 70.5667 447.852 70.49 447.512 70.49C447.172 70.49 446.865 70.5667 446.592 70.72C446.325 70.8733 446.112 71.0933 445.952 71.38C445.799 71.66 445.722 71.9833 445.722 72.35C445.722 72.7167 445.799 73.0433 445.952 73.33C446.112 73.61 446.325 73.83 446.592 73.99C446.865 74.1433 447.172 74.22 447.512 74.22ZM456.53 69.7V75H455.62V74.2C455.426 74.4733 455.17 74.6867 454.85 74.84C454.536 74.9867 454.193 75.06 453.82 75.06C453.113 75.06 452.556 74.8667 452.15 74.48C451.743 74.0867 451.54 73.51 451.54 72.75V69.7H452.5V72.64C452.5 73.1533 452.623 73.5433 452.87 73.81C453.116 74.07 453.47 74.2 453.93 74.2C454.436 74.2 454.836 74.0467 455.13 73.74C455.423 73.4333 455.57 73 455.57 72.44V69.7H456.53ZM459.277 70.59C459.444 70.2833 459.691 70.05 460.017 69.89C460.344 69.73 460.741 69.65 461.207 69.65V70.58C461.154 70.5733 461.081 70.57 460.987 70.57C460.467 70.57 460.057 70.7267 459.757 71.04C459.464 71.3467 459.317 71.7867 459.317 72.36V75H458.357V69.7H459.277V70.59Z" fill="white"/>
<path d="M486.905 163.166H468.621V114.096C468.621 110.73 471.35 108.001 474.716 108.001C478.082 108.001 480.81 110.73 480.81 114.096V157.071L486.905 163.166Z" fill="#C8C9C9"/>
<path d="M480.809 141.373V157.071C480.809 160.438 483.537 163.166 486.903 163.166C490.269 163.166 492.997 160.438 492.997 157.071V141.373H480.809Z" fill="#DADBDB"/>
<path d="M394.014 123.997H469.92C471.639 123.997 473.032 125.39 473.032 127.109V217.056C473.032 218.774 471.639 220.167 469.92 220.167H394.014C392.295 220.167 390.902 218.774 390.902 217.056V127.109C390.902 125.39 392.295 123.997 394.014 123.997Z" fill="#413147"/>
<path d="M404.231 108C399.284 108 395.273 112.011 395.273 116.958V124.863H468.622V114.096C468.622 113.849 468.637 113.602 468.666 113.359C469.03 110.343 471.595 108 474.714 108H404.231ZM401.627 123.209C400.686 123.209 399.919 122.448 399.919 121.502C399.919 120.561 400.686 119.795 401.627 119.795C402.568 119.795 403.334 120.561 403.334 121.502C403.334 122.448 402.568 123.209 401.627 123.209ZM408.368 123.209C407.427 123.209 406.661 122.448 406.661 121.502C406.661 120.561 407.427 119.795 408.368 119.795C409.314 119.795 410.075 120.561 410.075 121.502C410.075 122.448 409.314 123.209 408.368 123.209ZM415.114 123.209C414.169 123.209 413.407 122.448 413.407 121.502C413.407 120.561 414.169 119.795 415.114 119.795C416.055 119.795 416.821 120.561 416.821 121.502C416.821 122.448 416.055 123.209 415.114 123.209ZM421.855 123.209C420.91 123.209 420.148 122.448 420.148 121.502C420.148 120.561 420.91 119.795 421.855 119.795C422.796 119.795 423.562 120.561 423.562 121.502C423.562 122.448 422.796 123.209 421.855 123.209ZM428.597 123.209C427.656 123.209 426.89 122.448 426.89 121.502C426.89 120.561 427.656 119.795 428.597 119.795C429.542 119.795 430.304 120.561 430.304 121.502C430.304 122.448 429.542 123.209 428.597 123.209ZM435.338 123.209C434.397 123.209 433.631 122.448 433.631 121.502C433.631 120.561 434.397 119.795 435.338 119.795C436.284 119.795 437.05 120.561 437.05 121.502C437.05 122.448 436.284 123.209 435.338 123.209ZM442.084 123.209C441.138 123.209 440.377 122.448 440.377 121.502C440.377 120.561 441.138 119.795 442.084 119.795C443.025 119.795 443.791 120.561 443.791 121.502C443.791 122.448 443.025 123.209 442.084 123.209ZM448.826 123.209C447.885 123.209 447.118 122.448 447.118 121.502C447.118 120.561 447.885 119.795 448.826 119.795C449.767 119.795 450.533 120.561 450.533 121.502C450.533 122.448 449.767 123.209 448.826 123.209ZM455.567 123.209C454.626 123.209 453.86 122.448 453.86 121.502C453.86 120.561 454.626 119.795 455.567 119.795C456.512 119.795 457.274 120.561 457.274 121.502C457.274 122.448 456.513 123.209 455.567 123.209ZM462.313 123.209C461.367 123.209 460.601 122.448 460.601 121.502C460.601 120.561 461.367 119.795 462.313 119.795C463.254 119.795 464.02 120.561 464.02 121.502C464.02 122.448 463.254 123.209 462.313 123.209Z" fill="#FEFFFF"/>
<path d="M468.67 125.832H395.277L397.862 214.239H468.67V125.832ZM401.63 130.899C400.69 130.899 399.923 130.133 399.923 129.192C399.923 128.247 400.69 127.485 401.63 127.485C402.576 127.485 403.342 128.247 403.342 129.192C403.343 130.133 402.577 130.899 401.63 130.899ZM408.377 130.899C407.431 130.899 406.67 130.133 406.67 129.192C406.67 128.247 407.431 127.485 408.377 127.485C409.318 127.485 410.084 128.247 410.084 129.192C410.084 130.133 409.318 130.899 408.377 130.899ZM415.118 130.899C414.177 130.899 413.411 130.133 413.411 129.192C413.411 128.247 414.177 127.485 415.118 127.485C416.059 127.485 416.825 128.247 416.825 129.192C416.825 130.133 416.059 130.899 415.118 130.899ZM421.859 130.899C420.918 130.899 420.152 130.133 420.152 129.192C420.152 128.247 420.918 127.485 421.859 127.485C422.805 127.485 423.566 128.247 423.566 129.192C423.566 130.133 422.805 130.899 421.859 130.899ZM428.605 130.899C427.66 130.899 426.894 130.133 426.894 129.192C426.894 128.247 427.66 127.485 428.605 127.485C429.546 127.485 430.313 128.247 430.313 129.192C430.313 130.133 429.546 130.899 428.605 130.899ZM435.347 130.899C434.401 130.899 433.64 130.133 433.64 129.192C433.64 128.247 434.401 127.485 435.347 127.485C436.288 127.485 437.054 128.247 437.054 129.192C437.054 130.133 436.288 130.899 435.347 130.899ZM442.088 130.899C441.147 130.899 440.381 130.133 440.381 129.192C440.381 128.247 441.147 127.485 442.088 127.485C443.034 127.485 443.795 128.247 443.795 129.192C443.795 130.133 443.034 130.899 442.088 130.899ZM448.829 130.899C447.889 130.899 447.122 130.133 447.122 129.192C447.122 128.247 447.889 127.485 448.829 127.485C449.775 127.485 450.537 128.247 450.537 129.192C450.537 130.133 449.775 130.899 448.829 130.899ZM455.576 130.899C454.63 130.899 453.869 130.133 453.869 129.192C453.869 128.247 454.63 127.485 455.576 127.485C456.517 127.485 457.283 128.247 457.283 129.192C457.283 130.133 456.516 130.899 455.576 130.899ZM462.317 127.485C463.258 127.485 464.024 128.247 464.024 129.192C464.024 130.133 463.258 130.899 462.317 130.899C461.376 130.899 460.61 130.133 460.61 129.192C460.61 128.247 461.376 127.485 462.317 127.485Z" fill="#C8C9C9"/>
<path d="M395.272 125.832V174.926C395.272 185.989 393.682 196.993 390.544 207.605L386.867 220.059H447.272C451.123 220.059 454.746 218.793 457.675 216.601C458.611 215.903 459.474 215.112 460.25 214.239C461.919 212.367 463.199 210.122 463.941 207.605C467.074 196.993 468.665 185.989 468.665 174.926V125.832H395.272ZM455.571 127.485C456.512 127.485 457.278 128.247 457.278 129.192C457.278 130.133 456.512 130.899 455.571 130.899C454.625 130.899 453.863 130.133 453.863 129.192C453.863 128.247 454.625 127.485 455.571 127.485ZM448.824 127.485C449.77 127.485 450.532 128.247 450.532 129.192C450.532 130.133 449.77 130.899 448.824 130.899C447.883 130.899 447.117 130.133 447.117 129.192C447.117 128.247 447.883 127.485 448.824 127.485ZM442.083 127.485C443.029 127.485 443.79 128.247 443.79 129.192C443.79 130.133 443.029 130.899 442.083 130.899C441.142 130.899 440.376 130.133 440.376 129.192C440.376 128.247 441.142 127.485 442.083 127.485ZM435.342 127.485C436.283 127.485 437.049 128.247 437.049 129.192C437.049 130.133 436.283 130.899 435.342 130.899C434.396 130.899 433.635 130.133 433.635 129.192C433.635 128.247 434.396 127.485 435.342 127.485ZM428.6 127.485C429.541 127.485 430.307 128.247 430.307 129.192C430.307 130.133 429.541 130.899 428.6 130.899C427.655 130.899 426.889 130.133 426.889 129.192C426.889 128.247 427.655 127.485 428.6 127.485ZM421.854 127.485C422.8 127.485 423.561 128.247 423.561 129.192C423.561 130.133 422.8 130.899 421.854 130.899C420.913 130.899 420.147 130.133 420.147 129.192C420.147 128.247 420.913 127.485 421.854 127.485ZM415.113 127.485C416.054 127.485 416.82 128.247 416.82 129.192C416.82 130.133 416.054 130.899 415.113 130.899C414.172 130.899 413.406 130.133 413.406 129.192C413.406 128.247 414.172 127.485 415.113 127.485ZM408.372 127.485C409.313 127.485 410.079 128.247 410.079 129.192C410.079 130.133 409.313 130.899 408.372 130.899C407.426 130.899 406.664 130.133 406.664 129.192C406.664 128.247 407.426 127.485 408.372 127.485ZM401.625 127.485C402.571 127.485 403.337 128.247 403.337 129.192C403.337 130.133 402.571 130.899 401.625 130.899C400.684 130.899 399.918 130.133 399.918 129.192C399.918 128.247 400.684 127.485 401.625 127.485ZM462.312 130.899C461.371 130.899 460.605 130.133 460.605 129.192C460.605 128.247 461.371 127.485 462.312 127.485C463.253 127.485 464.019 128.247 464.019 129.192C464.019 130.133 463.253 130.899 462.312 130.899Z" fill="#FEFFFF"/>
<path d="M456.667 204.388H450.476C450.036 204.388 449.68 204.031 449.68 203.592C449.68 203.152 450.036 202.796 450.476 202.796H456.667C457.106 202.796 457.463 203.152 457.463 203.592C457.463 204.031 457.106 204.388 456.667 204.388Z" fill="#346690"/>
<path d="M456.671 207.052H452.772C452.333 207.052 451.977 206.696 451.977 206.257C451.977 205.817 452.333 205.461 452.772 205.461H456.671C457.111 205.461 457.467 205.817 457.467 206.257C457.467 206.696 457.111 207.052 456.671 207.052Z" fill="#95B4E0"/>
<path d="M456.671 201.731H452.772C452.333 201.731 451.977 201.375 451.977 200.936C451.977 200.496 452.333 200.14 452.772 200.14H456.671C457.111 200.14 457.467 200.496 457.467 200.936C457.467 201.375 457.111 201.731 456.671 201.731Z" fill="#95B4E0"/>
<path d="M437.224 210.009V205.266H373.934V210.009C373.934 215.559 378.433 220.058 383.983 220.058H447.274C441.724 220.058 437.224 215.559 437.224 210.009Z" fill="#DADBDB"/>
<path d="M401.623 128.909C401.238 128.909 400.926 128.597 400.926 128.212V122.482C400.926 122.097 401.238 121.785 401.623 121.785C402.008 121.785 402.32 122.097 402.32 122.482V128.212C402.32 128.597 402.008 128.909 401.623 128.909Z" fill="#251F2B"/>
<path d="M408.365 128.909C407.98 128.909 407.668 128.597 407.668 128.212V122.482C407.668 122.097 407.98 121.785 408.365 121.785C408.75 121.785 409.063 122.097 409.063 122.482V128.212C409.062 128.597 408.75 128.909 408.365 128.909Z" fill="#251F2B"/>
<path d="M415.107 128.909C414.722 128.909 414.41 128.597 414.41 128.212V122.482C414.41 122.097 414.722 121.785 415.107 121.785C415.493 121.785 415.805 122.097 415.805 122.482V128.212C415.805 128.597 415.493 128.909 415.107 128.909Z" fill="#251F2B"/>
<path d="M421.857 128.909C421.472 128.909 421.16 128.597 421.16 128.212V122.482C421.16 122.097 421.472 121.785 421.857 121.785C422.243 121.785 422.555 122.097 422.555 122.482V128.212C422.555 128.597 422.243 128.909 421.857 128.909Z" fill="#251F2B"/>
<path d="M428.596 128.909C428.211 128.909 427.898 128.597 427.898 128.212V122.482C427.898 122.097 428.211 121.785 428.596 121.785C428.981 121.785 429.293 122.097 429.293 122.482V128.212C429.293 128.597 428.981 128.909 428.596 128.909Z" fill="#251F2B"/>
<path d="M435.342 128.909C434.957 128.909 434.645 128.597 434.645 128.212V122.482C434.645 122.097 434.957 121.785 435.342 121.785C435.727 121.785 436.039 122.097 436.039 122.482V128.212C436.039 128.597 435.727 128.909 435.342 128.909Z" fill="#251F2B"/>
<path d="M442.088 128.909C441.703 128.909 441.391 128.597 441.391 128.212V122.482C441.391 122.097 441.703 121.785 442.088 121.785C442.473 121.785 442.785 122.097 442.785 122.482V128.212C442.785 128.597 442.473 128.909 442.088 128.909Z" fill="#251F2B"/>
<path d="M448.83 128.909C448.445 128.909 448.133 128.597 448.133 128.212V122.482C448.133 122.097 448.445 121.785 448.83 121.785C449.215 121.785 449.527 122.097 449.527 122.482V128.212C449.527 128.597 449.215 128.909 448.83 128.909Z" fill="#251F2B"/>
<path d="M455.576 128.909C455.191 128.909 454.879 128.597 454.879 128.212V122.482C454.879 122.097 455.191 121.785 455.576 121.785C455.961 121.785 456.273 122.097 456.273 122.482V128.212C456.273 128.597 455.961 128.909 455.576 128.909Z" fill="#251F2B"/>
<path d="M462.314 128.909C461.929 128.909 461.617 128.597 461.617 128.212V122.482C461.617 122.097 461.929 121.785 462.314 121.785C462.7 121.785 463.012 122.097 463.012 122.482V128.212C463.012 128.597 462.7 128.909 462.314 128.909Z" fill="#251F2B"/>
<path d="M406.859 141.272L403.94 140.213V139.194L406.859 138.135V139.108L404.306 139.984V139.423L406.859 140.299V141.272Z" fill="#473A52"/>
<path d="M457.075 141.272L459.994 140.213V139.194L457.075 138.135V139.108L459.628 139.984V139.423L457.075 140.299V141.272Z" fill="#473A52"/>
<path d="M446.735 141.429H417.195C416.177 141.429 415.352 140.604 415.352 139.586C415.352 138.567 416.177 137.742 417.195 137.742H446.735C447.754 137.742 448.579 138.567 448.579 139.586C448.579 140.604 447.754 141.429 446.735 141.429Z" fill="#95B4E0"/>
<path d="M415.113 150.722H405.832C405.215 150.722 404.715 150.222 404.715 149.605C404.715 148.988 405.215 148.487 405.832 148.487H415.113C415.73 148.487 416.23 148.988 416.23 149.605C416.23 150.222 415.73 150.722 415.113 150.722Z" fill="#FFCA4E"/>
<path d="M429.445 150.722H420.164C419.547 150.722 419.047 150.222 419.047 149.605C419.047 148.988 419.547 148.487 420.164 148.487H429.445C430.062 148.487 430.562 148.988 430.562 149.605C430.562 150.222 430.062 150.722 429.445 150.722Z" fill="#FFCA4E"/>
<path d="M443.777 150.722H434.496C433.879 150.722 433.379 150.222 433.379 149.605C433.379 148.988 433.879 148.487 434.496 148.487H443.777C444.394 148.487 444.894 148.988 444.894 149.605C444.894 150.222 444.394 150.722 443.777 150.722Z" fill="#FFCA4E"/>
<path d="M458.109 150.722H448.828C448.211 150.722 447.711 150.222 447.711 149.605C447.711 148.988 448.211 148.487 448.828 148.487H458.109C458.726 148.487 459.226 148.988 459.226 149.605C459.226 150.222 458.726 150.722 458.109 150.722Z" fill="#FFCA4E"/>
<path d="M414.546 164.946H406.296C405.423 164.946 404.715 164.238 404.715 163.365V155.115C404.715 154.242 405.423 153.534 406.296 153.534H414.546C415.419 153.534 416.127 154.241 416.127 155.115V163.365C416.127 164.238 415.419 164.946 414.546 164.946Z" fill="#BCD8FB"/>
<path d="M428.929 164.946H420.679C419.806 164.946 419.098 164.238 419.098 163.365V155.115C419.098 154.242 419.805 153.534 420.679 153.534H428.929C429.802 153.534 430.51 154.241 430.51 155.115V163.365C430.51 164.238 429.802 164.946 428.929 164.946Z" fill="#D43F53"/>
<path d="M443.312 164.946H435.062C434.189 164.946 433.48 164.238 433.48 163.365V155.115C433.48 154.242 434.188 153.534 435.062 153.534H443.312C444.185 153.534 444.893 154.241 444.893 155.115V163.365C444.893 164.238 444.185 164.946 443.312 164.946Z" fill="#BCD8FB"/>
<path d="M457.694 164.946H449.445C448.571 164.946 447.863 164.238 447.863 163.365V155.115C447.863 154.242 448.571 153.534 449.445 153.534H457.694C458.568 153.534 459.276 154.241 459.276 155.115V163.365C459.275 164.238 458.568 164.946 457.694 164.946Z" fill="#BCD8FB"/>
<path d="M414.546 179.622H406.296C405.423 179.622 404.715 178.914 404.715 178.041V169.791C404.715 168.918 405.423 168.209 406.296 168.209H414.546C415.419 168.209 416.127 168.917 416.127 169.791V178.041C416.127 178.914 415.419 179.622 414.546 179.622Z" fill="#BCD8FB"/>
<path d="M428.929 179.622H420.679C419.806 179.622 419.098 178.914 419.098 178.041V169.791C419.098 168.918 419.805 168.209 420.679 168.209H428.929C429.802 168.209 430.51 168.917 430.51 169.791V178.041C430.51 178.914 429.802 179.622 428.929 179.622Z" fill="#BCD8FB"/>
<path d="M443.312 179.622H435.062C434.189 179.622 433.48 178.914 433.48 178.041V169.791C433.48 168.918 434.188 168.209 435.062 168.209H443.312C444.185 168.209 444.893 168.917 444.893 169.791V178.041C444.893 178.914 444.185 179.622 443.312 179.622Z" fill="#D43F53"/>
<path d="M442.11 174.289C443.41 173.133 442.676 170.945 440.94 170.867C440.903 170.865 440.866 170.864 440.829 170.864C440.149 170.864 439.536 171.145 439.097 171.597C438.658 171.145 438.044 170.864 437.364 170.864C437.327 170.864 437.29 170.865 437.254 170.867C435.517 170.945 434.784 173.134 436.084 174.289L439.097 176.967L442.11 174.289Z" fill="#FEFFFF"/>
<path d="M434.586 174.16H437.845L438.629 172.45L439.454 175.381L440.232 174.16H443.788" stroke="#2C1817" stroke-width="0.324781" stroke-miterlimit="10"/>
<path d="M457.694 179.622H449.445C448.571 179.622 447.863 178.914 447.863 178.041V169.791C447.863 168.918 448.571 168.209 449.445 168.209H457.694C458.568 168.209 459.276 168.917 459.276 169.791V178.041C459.275 178.914 458.568 179.622 457.694 179.622Z" fill="#D43F53"/>
<path d="M414.546 194.298H406.296C405.423 194.298 404.715 193.59 404.715 192.716V184.467C404.715 183.593 405.423 182.885 406.296 182.885H414.546C415.419 182.885 416.127 183.593 416.127 184.467V192.716C416.127 193.59 415.419 194.298 414.546 194.298Z" fill="#BCD8FB"/>
<path d="M428.929 194.298H420.679C419.806 194.298 419.098 193.59 419.098 192.716V184.467C419.098 183.593 419.805 182.885 420.679 182.885H428.929C429.802 182.885 430.51 183.593 430.51 184.467V192.716C430.51 193.59 429.802 194.298 428.929 194.298Z" fill="#BCD8FB"/>
<path d="M443.312 194.298H435.062C434.189 194.298 433.48 193.59 433.48 192.716V184.467C433.48 183.593 434.188 182.885 435.062 182.885H443.312C444.185 182.885 444.893 183.593 444.893 184.467V192.716C444.893 193.59 444.185 194.298 443.312 194.298Z" fill="#DEECFF"/>
<path d="M457.593 194.298H449.343C448.47 194.298 447.762 193.59 447.762 192.716V184.467C447.762 183.593 448.47 182.885 449.343 182.885H457.593C458.466 182.885 459.174 183.593 459.174 184.467V192.716C459.174 193.59 458.466 194.298 457.593 194.298Z" fill="#DEECFF"/>
<path d="M481.087 162.922H452.685C451.881 162.922 451.23 162.271 451.23 161.468V150.679C451.23 149.876 451.881 149.225 452.685 149.225H481.087C481.89 149.225 482.541 149.876 482.541 150.679V161.468C482.541 162.271 481.89 162.922 481.087 162.922Z" fill="#346690"/>
<path d="M485.701 149.739C485.985 147.996 484.801 146.353 483.058 146.069C481.315 145.786 479.672 146.969 479.389 148.712C479.105 150.455 480.288 152.098 482.031 152.382C483.774 152.665 485.417 151.482 485.701 149.739Z" fill="#FFCA4E"/>
<path d="M483.836 149.704H481.258V148.613C481.258 147.901 481.835 147.324 482.547 147.324C483.259 147.324 483.836 147.901 483.836 148.613V149.704H483.836Z" fill="#FEFFFF"/>
<path d="M484.536 150.262H480.555C480.555 149.646 481.054 149.146 481.67 149.146H483.42C484.036 149.146 484.536 149.646 484.536 150.262Z" fill="#FEFFFF"/>
<path d="M481.988 150.57C481.988 150.877 482.237 151.126 482.545 151.126C482.852 151.126 483.101 150.877 483.101 150.57H481.988Z" fill="#FEFFFF"/>
<path d="M454.301 161.547V169.255L462.315 161.547H454.301Z" fill="#346690"/>
<path d="M462.514 156.906C462.979 154.582 461.471 152.32 459.147 151.855C456.822 151.39 454.561 152.897 454.096 155.222C453.631 157.546 455.138 159.808 457.463 160.273C459.787 160.738 462.049 159.231 462.514 156.906Z" fill="#FEFFFF"/>
<path d="M459.351 153.341H457.258V158.806H459.351V153.341Z" fill="#D43F53"/>
<path d="M461.039 157.121V155.027H455.575V157.121H461.039Z" fill="#D43F53"/>
<path d="M477.791 154.761H467.172C466.833 154.761 466.559 154.486 466.559 154.147C466.559 153.809 466.833 153.534 467.172 153.534H477.791C478.13 153.534 478.405 153.809 478.405 154.147C478.405 154.486 478.13 154.761 477.791 154.761Z" fill="#95B4E0"/>
<path d="M476.07 158.614H467.833C467.129 158.614 466.559 158.043 466.559 157.339C466.559 156.635 467.129 156.064 467.833 156.064H476.07C476.774 156.064 477.345 156.635 477.345 157.339C477.345 158.043 476.774 158.614 476.07 158.614Z" fill="white"/>
<path d="M361.892 148.73C363.478 146.58 364.72 146.577 368.041 146.721C369.515 146.784 370.213 144.733 372.16 144.159C374.67 143.419 376.879 144.212 378.043 147.014C378.742 146.631 379.948 146.629 380.409 147.384C380.547 147.611 380.608 147.898 380.659 148.179C381.545 153.123 379.292 158.194 376.445 161.56C372.571 166.142 367.417 167.083 363.997 164.374C362.34 163.061 360.126 151.123 361.892 148.73Z" fill="#441B15"/>
<path d="M364.137 170.699V236.492H373.413V171.425L364.137 170.699Z" fill="#FFCA4C"/>
<path d="M364.137 170.699V173.915C364.137 173.915 369.795 177.581 373.351 173.915L373.413 171.424L364.137 170.699Z" fill="#FFDD8C"/>
<path d="M364.137 236.493L364.078 233.725H373.488L373.413 236.493H364.137Z" fill="#FFDD8C"/>
<path d="M373.414 171.425V236.492H383.715C383.715 236.492 383.551 175.778 383.715 173.916C383.879 172.053 373.414 171.425 373.414 171.425Z" fill="#FEFFFF"/>
<path d="M373.414 166.798V194.652C373.414 194.652 377.551 191.041 377.64 187.286C377.729 183.531 377.253 171.188 377.327 170.035C377.401 168.883 373.414 166.798 373.414 166.798Z" fill="#DADBDB"/>
<path d="M382.713 172.945C386.662 173.449 392.306 185.055 392.306 185.055L382.713 196.386C382.713 196.386 378.929 172.462 382.713 172.945Z" fill="#FEFFFF"/>
<path d="M383.035 178.776L383.642 194.602" stroke="#0D0000" stroke-width="0.1813" stroke-miterlimit="10"/>
<path d="M382.718 196.386L393.284 183.994C393.284 183.994 393.746 182.951 392.926 182.708C392.926 182.708 392.31 181.027 391.205 181.331C390.739 181.459 381.715 189.727 381.715 189.727L382.718 196.386Z" fill="#DADBDB"/>
<path d="M411.298 164.354L392.309 185.056L384.891 194.175C384.891 194.175 390.65 198.375 394.091 197.604C396.135 197.146 414.626 166.333 414.626 166.333L411.298 164.354Z" fill="#F88D7D"/>
<path d="M364.139 170.699C364.139 170.699 351.743 175.539 349.776 177.075C347.808 178.612 346.66 236.492 346.66 236.492H364.139V170.699Z" fill="#FEFFFF"/>
<path d="M414.504 160.124C414.504 160.124 419.135 156.687 419.733 157.086C420.331 157.484 417.342 160.921 416.445 161.767L414.504 160.124Z" fill="#CC7467"/>
<path d="M409.325 160.312L409.215 158.429L422.761 157.605L422.871 159.488L409.325 160.312Z" fill="#FFCA4E"/>
<path d="M422.868 159.488L422.758 157.605L423.495 157.899L424.077 158.13C424.374 158.248 424.399 158.66 424.117 158.813L423.57 159.108L422.868 159.488Z" fill="white"/>
<path opacity="0.3" d="M409.294 159.824L409.242 158.934L422.789 158.11L422.841 159L409.294 159.824Z" fill="white"/>
<path d="M409.325 160.315L409.215 158.433L408.935 158.45L409.045 160.332L409.325 160.315Z" fill="white"/>
<path d="M408.176 159.555L408.162 159.315C408.135 158.862 408.481 158.473 408.935 158.446L409.045 160.328C408.592 160.355 408.202 160.009 408.176 159.555Z" fill="#473A52"/>
<path d="M423.576 159.108C423.497 158.931 423.446 158.725 423.433 158.505C423.42 158.288 423.446 158.082 423.502 157.899L424.083 158.13C424.381 158.248 424.405 158.66 424.123 158.813L423.576 159.108Z" fill="#473A52"/>
<path d="M419.771 156.662C419.771 156.662 415.815 156.052 415.563 156.137C415.312 156.223 414.559 158.359 414.559 158.359C414.559 158.359 412.737 159.137 412.423 159.407C412.109 159.676 411.293 164.354 411.293 164.354L414.621 166.333C414.621 166.333 417.07 163.961 417.447 163.609C417.824 163.256 419.331 158.913 418.892 158.792C418.453 158.672 416.568 160.998 416.568 160.998L417.134 158.359C417.133 158.359 420.587 158.197 419.771 156.662Z" fill="#F88D7D"/>
<path d="M349.77 177.076C341.736 179.622 346.655 210.289 346.655 210.289L355.394 204.754C355.394 204.754 354.502 175.576 349.77 177.076Z" fill="#FEFFFF"/>
<path d="M355.286 202.058L355.4 204.754L346.66 210.289C346.66 210.289 343.873 211.405 344.365 208.824C344.365 208.824 343.018 207.025 343.264 205.874C343.511 204.722 355.267 201.682 355.276 201.87" fill="#DADBDB"/>
<path d="M355.4 204.754C355.4 204.754 355.222 189.824 353.688 185.489" stroke="#0D0000" stroke-width="0.1813" stroke-miterlimit="10"/>
<path d="M364.137 166.249C364.137 166.249 362.595 167.248 361.143 168.776C359.692 170.305 359.727 183.921 359.692 186.601C359.645 190.16 364.137 194.652 364.137 194.652L364.137 166.249Z" fill="#DADBDB"/>
<path d="M411.298 164.354L410.797 165.987" stroke="#41313B" stroke-width="0.166542" stroke-miterlimit="10"/>
<path d="M367.045 165.17C367.045 165.17 363.259 166.48 363.118 169.231C362.978 171.982 363.488 178.818 363.488 178.818" stroke="#3B2D47" stroke-width="0.324781" stroke-miterlimit="10"/>
<path d="M362.03 184.631C362.03 184.631 360.403 179.218 363.38 178.792C366.506 178.345 366.578 184.123 366.578 184.123" stroke="#3B2D47" stroke-width="0.324781" stroke-miterlimit="10"/>
<path d="M362.699 184.444C362.718 184.625 362.539 184.794 362.298 184.821C362.057 184.847 361.846 184.722 361.826 184.54C361.806 184.358 361.985 184.189 362.226 184.163C362.467 184.136 362.679 184.262 362.699 184.444Z" fill="#3B2D47"/>
<path d="M366.734 184.091C366.754 184.273 366.574 184.442 366.333 184.468C366.092 184.495 365.881 184.369 365.861 184.187C365.841 184.006 366.02 183.837 366.261 183.81C366.502 183.783 366.714 183.909 366.734 184.091Z" fill="#3B2D47"/>
<path d="M370.809 165.367C370.809 165.367 373.473 166.518 374.345 169.545C374.965 171.697 374.402 183.129 374.442 182.944" stroke="#2C1817" stroke-width="0.324781" stroke-miterlimit="10"/>
<path d="M375.941 183.232C375.782 184.061 374.981 184.604 374.152 184.446C373.322 184.287 372.779 183.485 372.938 182.656C373.097 181.827 373.898 181.283 374.727 181.442C375.556 181.601 376.1 182.402 375.941 183.232Z" fill="#BDBDBD"/>
<path d="M375.38 183.123C375.281 183.638 374.783 183.976 374.268 183.877C373.752 183.779 373.415 183.28 373.513 182.765C373.612 182.249 374.11 181.912 374.625 182.01C375.141 182.109 375.479 182.607 375.38 183.123Z" fill="#E0E0E0"/>
<path d="M364.137 158.131V170.699C364.137 170.699 368.279 174.732 373.369 171.425L373.644 159.05L364.137 158.131Z" fill="#F88D7D"/>
<path d="M365.109 158.379L364.867 161.462C364.867 161.462 364.971 167.77 366.856 169.676C369.316 172.163 373.418 171.425 373.418 171.425L373.649 159.05L365.109 158.379Z" fill="#070019"/>
<path d="M377.121 157.212C377.121 157.212 379.876 155.336 380.511 157.589C381.051 159.505 378.457 160.464 377.121 159.232V157.212Z" fill="#F88D7D"/>
<path d="M364.48 154.562C364.48 149.502 371.023 149.851 371.023 149.851C371.023 149.851 377.566 149.502 377.566 154.562C377.566 156.134 377.653 159.447 377.566 160.319C377.478 161.192 375.821 167.386 371.023 167.386C366.225 167.386 364.567 161.192 364.48 160.319C364.393 159.447 364.48 156.134 364.48 154.562Z" fill="#F88D7D"/>
<path d="M371.472 157.991C371.473 158.418 371.286 158.764 371.052 158.765C370.82 158.766 370.63 158.42 370.629 157.993C370.628 157.566 370.816 157.219 371.048 157.218C371.282 157.218 371.471 157.563 371.472 157.991Z" fill="#0D0000"/>
<path d="M368.891 155.473C368.891 155.473 369.438 154.63 370.693 154.721C371.947 154.812 372.129 155.314 372.015 155.473C371.828 155.736 371.228 155.675 370.738 155.473C370.008 155.173 368.868 155.77 368.891 155.473Z" fill="#441B15"/>
<path d="M374.793 157.991C374.792 158.418 374.98 158.764 375.213 158.765C375.446 158.766 375.635 158.42 375.636 157.993C375.637 157.566 375.45 157.219 375.217 157.218C374.984 157.218 374.794 157.563 374.793 157.991Z" fill="#0D0000"/>
<path d="M377.325 155.473C377.325 155.473 376.778 154.63 375.523 154.721C374.269 154.812 374.087 155.314 374.201 155.473C374.388 155.736 374.989 155.675 375.478 155.473C376.208 155.173 377.348 155.77 377.325 155.473Z" fill="#441B15"/>
<path d="M379.25 157.292L377.641 158.97" stroke="#41313B" stroke-width="0.166542" stroke-miterlimit="10"/>
<path d="M379.25 158.765L378.352 158.229" stroke="#41313B" stroke-width="0.166542" stroke-miterlimit="10"/>
<path d="M364.919 157.212C364.919 157.212 362.164 155.336 361.53 157.589C360.99 159.505 363.584 160.464 364.919 159.232V157.212Z" fill="#F88D7D"/>
<path d="M362.793 157.292L364.402 158.97" stroke="#41313B" stroke-width="0.166542" stroke-miterlimit="10"/>
<path d="M362.793 158.765L363.691 158.229" stroke="#41313B" stroke-width="0.166542" stroke-miterlimit="10"/>
<path d="M372.873 159.021C372.873 159.021 373.499 161.439 373.324 162.169C373.15 162.9 371.82 162.478 371.82 162.478" stroke="#41313B" stroke-width="0.166542" stroke-miterlimit="10"/>
<path d="M374.363 163.374H370.801C370.801 163.374 371.336 166.251 372.582 166.248C373.784 166.246 374.363 163.374 374.363 163.374Z" fill="#FDFCFF"/>
<path d="M373.721 183.78C373.721 183.78 364.285 200.633 357.617 200.802C357.617 200.802 361.336 206.554 373.105 206.9C373.105 206.9 383.233 199.617 385.971 185.47L373.721 183.78Z" fill="#E8E8E8"/>
<path d="M373.718 183.78L361.145 207.924L377.171 209.475L390.432 186.086L373.718 183.78Z" fill="#264C6B"/>
<path d="M375.273 183.995L362.699 208.139L378.725 209.689L391.987 186.301L375.273 183.995Z" fill="#346690"/>
<path d="M373.645 199.409C373.645 199.409 374.643 197.014 374.731 196.805C374.819 196.597 376.74 194.953 376.862 195.031C377.391 195.37 376.589 196.614 376.589 196.614C376.589 196.614 378.282 194.669 378.857 195.031C379.158 195.221 377.955 196.997 377.955 196.997C377.955 196.997 379.759 194.817 380.282 195.138C381.077 195.627 378.911 198.011 378.911 198.011C378.911 198.011 380.348 197.119 380.464 197.278C380.901 197.879 380.107 201.14 376.664 201.987L373.645 199.409Z" fill="#F88D7D"/>
<path d="M373.646 199.409L355.4 204.754L346.66 210.289C346.66 210.289 347.218 215.123 350.677 215.805C352.733 216.211 376.666 201.986 376.666 201.986L373.646 199.409Z" fill="#F88D7D"/>
<path d="M373.646 199.409L372.586 200.341" stroke="#0D0000" stroke-width="0.1813" stroke-miterlimit="10"/>
<path d="M379.113 152.825C378.454 154.078 376.883 154.773 375.513 154.418C374.695 154.205 374 153.68 373.243 153.304C372.487 152.929 371.552 152.711 370.817 153.129C370.42 153.355 370.129 153.742 369.718 153.94C369.087 154.242 368.179 153.712 366.932 152.829C367.342 154.1 367.435 155.243 367.044 156.129C366.653 157.016 365.387 157.109 364.435 156.932C362.874 156.641 362.606 155.043 362.532 154.126C362.073 148.496 369.683 146.985 373.396 147.245C374.892 147.349 376.398 147.77 377.593 148.675C378.789 149.58 379.811 151.498 379.113 152.825Z" fill="#441B15"/>
<path d="M392.305 185.056L391.555 188.591" stroke="#0D0000" stroke-width="0.1813" stroke-miterlimit="10"/>
<path d="M352.157 146.057C355.192 143.022 355.192 138.102 352.157 135.067C349.122 132.032 344.202 132.032 341.167 135.067C338.132 138.102 338.132 143.022 341.167 146.057C344.202 149.092 349.122 149.092 352.157 146.057Z" fill="white"/>
<path d="M351.7 143.897L355.399 149.039L349.316 146.468L351.7 143.897Z" fill="white"/>
<path d="M342.484 136.628L347.087 139.435L358.085 131.75L346.132 144.912L342.484 136.628Z" fill="#3AE4BF"/>
<path d="M435.417 234.126L447.504 210.289H413.318L400.031 236.492H431.564C433.192 236.493 434.681 235.578 435.417 234.126Z" fill="#C9E2FF"/>
<path d="M428.774 226.433C429.988 225.219 429.988 223.251 428.774 222.037C427.56 220.823 425.592 220.823 424.378 222.037C423.164 223.251 423.164 225.219 424.378 226.433C425.592 227.647 427.56 227.647 428.774 226.433Z" fill="#DBECFF"/>
<path d="M402.16 232.297L413.319 210.289H415.972L403.886 234.126C403.15 235.578 401.66 236.493 400.033 236.493H371.449C370.795 236.493 370.266 235.963 370.266 235.31C370.266 234.656 370.795 234.126 371.449 234.126H399.182C400.44 234.126 401.591 233.419 402.16 232.297Z" fill="#ABD2FF"/>
<path d="M379.416 235.706H395.246C395.467 235.706 395.647 235.527 395.647 235.306C395.647 235.085 395.468 234.905 395.246 234.905H379.416C379.195 234.905 379.016 235.084 379.016 235.306C379.016 235.527 379.195 235.706 379.416 235.706Z" fill="#346690"/>
<path d="M376.73 235.306C376.73 235.527 376.91 235.706 377.131 235.706C377.352 235.706 377.531 235.527 377.531 235.306C377.531 235.085 377.352 234.905 377.131 234.905C376.91 234.906 376.73 235.085 376.73 235.306Z" fill="#346690"/>
<path d="M375.199 235.306C375.199 235.527 375.378 235.706 375.6 235.706C375.821 235.706 376 235.527 376 235.306C376 235.085 375.821 234.905 375.6 234.905C375.378 234.906 375.199 235.085 375.199 235.306Z" fill="#346690"/>
<path d="M518.244 37.5303H310.283C307.369 37.5303 304.984 39.9145 304.984 42.8287C304.984 45.7428 307.369 48.127 310.283 48.127H325.736V249.466H502.791V48.127H518.244C521.159 48.127 523.543 45.7428 523.543 42.8287C523.543 39.9145 521.159 37.5303 518.244 37.5303ZM498.376 245.05H330.152V48.127H498.376V245.05Z" fill="#8B969F"/>
<path d="M519.834 290.175H128.504V437.117H519.834V290.175Z" fill="#8B969F"/>
<path d="M254.917 142.438C254.917 142.438 253.548 158.996 243.172 161.071V197.365H212.839L211.647 152.77C211.647 152.77 191.071 134.226 197.606 123.762C208.379 106.542 203.832 98.9032 225.246 98.1967C246.66 97.4903 257.699 110.604 256.33 125.13C256.286 125.174 265.249 131.356 254.917 142.438Z" fill="#FFAAAD"/>
<path d="M257.301 98.0201C257.301 98.0201 269.046 111.001 255.932 124.821C255.932 124.821 255.226 110.339 246.263 108.264C246.263 108.264 224.849 123.452 211.735 115.152C211.735 115.152 207.187 118.375 208.159 129.281C208.203 129.722 207.717 130.075 207.32 129.855L206.128 129.236C205.73 129.06 205.421 128.707 205.245 128.309L204.803 127.294C204.45 126.543 203.743 126.013 202.904 126.013C201.05 125.925 198.18 126.72 199.637 132.989C201.271 140.01 207.276 143.851 207.276 143.851C207.276 143.851 208.07 147.957 209.792 151.225C209.792 151.225 179.15 123.629 199.372 95.989C207.231 85.2598 234.783 72.4112 257.301 98.0201Z" fill="#2A2A2A"/>
<path d="M210.012 179.483L233.457 190.874L247.233 179.483L242.685 290.175L213.279 290.308L210.012 179.483Z" fill="#011F6F"/>
<path d="M211.957 175.995L180.564 183.589C172.749 185.488 166.788 191.801 165.375 199.705L151.29 277.503C150.098 284.17 155.22 290.351 162.019 290.351H232.4L231.958 272.469L216.24 266.244L211.957 175.995Z" fill="url(#paint6_linear_2542_708)"/>
<path d="M297.747 290.175C293.641 290.175 289.843 288.806 286.753 286.466C283.662 284.126 281.322 280.815 280.218 276.885L275.582 260.504C275.582 260.504 275.582 260.504 275.582 260.46L274.346 256.045L270.416 290.175H237.875L245.425 175.862L284.766 182.75C290.771 183.81 295.583 188.269 297.085 194.186L315.232 266.73C318.72 278.43 309.977 290.175 297.747 290.175Z" fill="url(#paint7_linear_2542_708)"/>
<path d="M250.237 276.488L249.354 276.311L263.439 196.747L251.164 191.758L262.644 182.485L242.996 173.92L243.349 173.125L264.322 182.265L252.842 191.493L264.41 196.217L250.237 276.488Z" fill="#0C2F3D"/>
<path d="M284.016 209.64C283.972 210.39 283.972 210.832 283.972 210.832L272.36 215.026L269.667 210.081L261.145 194.451C260.438 193.17 260.571 191.581 261.498 190.433L264.633 186.238L259.82 164.957C259.82 164.957 260.792 161.866 263.529 163.234C266.267 164.559 271.388 183.589 271.388 183.589C271.388 183.589 280.793 181.426 282.957 187.166C284.723 192.067 284.193 205.533 284.016 209.64Z" fill="#FFAAAD"/>
<path opacity="0.1" d="M284.014 209.64C283.97 210.39 283.97 210.832 283.97 210.832L272.357 215.026L269.664 210.081L284.014 209.64Z" fill="black"/>
<path opacity="0.1" d="M275.581 260.46L274.345 256.044L270.415 290.175H259.465L265.249 216.351C266.529 216.88 275.316 259.135 275.581 260.46Z" fill="black"/>
<path d="M304.369 250.746L286.663 209.86L267.148 216.748L266.883 215.954L287.105 208.712L305.208 250.393L304.369 250.746Z" fill="#0C2F3D"/>
<path d="M276.95 290.175H231.914V279.755H240.259L251.474 276.09C251.43 276.09 275.891 288.321 276.95 290.175Z" fill="#FFAAAD"/>
<path d="M272.313 197.453L270.988 188.976V183.677H271.871V188.931L273.196 197.276L272.313 197.453Z" fill="#0C2F3D"/>
<path d="M276.289 198.733L274.965 188.976L275.627 183.191L276.51 183.28L275.848 188.976L277.173 198.645L276.289 198.733Z" fill="#0C2F3D"/>
<path d="M279.379 196.085L278.496 188.976L278.938 183.854L279.821 183.898L279.379 188.976L280.262 195.996L279.379 196.085Z" fill="#0C2F3D"/>
<path d="M209.616 264.124L193.633 197.144L204.45 191.492L194.692 181.779L212.089 174.449L212.442 175.244L196.282 182.044L205.952 191.757L194.692 197.585L210.499 263.948L209.616 264.124Z" fill="#0C2F3D"/>
<path d="M235.225 150.121C235.225 150.121 241.407 155.419 245.38 150.121C249.354 144.823 234.342 147.03 235.225 150.121Z" fill="white"/>
<path d="M233.506 192.022L239.201 188.093L249.533 199.573C249.533 199.573 253.154 178.953 243.749 173.478L233.108 189.815C233.108 189.815 216.065 184.649 212.401 170.873C212.401 170.873 205.689 186.371 216.286 199.573L225.823 189.462L233.506 192.022Z" fill="#382E3D"/>
<path opacity="0.1" d="M188.423 235.337L183.566 259.621L202.552 262.712L188.423 254.764V235.337Z" fill="black"/>
<path opacity="0.1" d="M243.175 161.203V169.857C228.383 168.135 220.215 154.934 220.215 154.934C230.812 160.541 238.759 161.38 243.175 161.203Z" fill="black"/>
<path opacity="0.1" d="M236.331 290.175H231.871V279.755H232.224L236.331 290.175Z" fill="black"/>
<path d="M557.321 294.944C557.321 294.944 538.821 172.507 598.251 188.711C598.207 188.667 627.525 202.178 557.321 294.944Z" fill="url(#paint8_linear_2542_708)"/>
<path d="M572.598 294.944C572.598 294.944 600.9 227.433 642.316 248.141C642.316 248.097 656.356 264.301 572.598 294.944Z" fill="url(#paint9_linear_2542_708)"/>
<path d="M545.314 297.858C545.314 297.858 492.596 266.156 499.263 248.848C499.263 248.848 518.822 227.522 545.314 297.858Z" fill="url(#paint10_linear_2542_708)"/>
<path d="M536.57 322.451C536.57 322.451 495.331 299.403 493.079 314.768C493.079 314.768 491.666 327.44 536.57 322.451Z" fill="url(#paint11_linear_2542_708)"/>
<path d="M566.11 338.479C563.77 339.494 585.096 294.105 607.261 305.452C607.261 305.452 620.683 315.166 566.11 338.479Z" fill="url(#paint12_linear_2542_708)"/>
<path d="M556.304 351.151L554.494 351.062C554.803 343.733 552.462 337.375 547.606 332.121C533.388 316.888 502.04 315.872 501.73 315.872L501.775 314.062C503.099 314.106 534.183 315.122 548.93 330.884C554.14 336.536 556.613 343.336 556.304 351.151Z" fill="#0C2F3D"/>
<path d="M558.162 361.482L556.352 361.394C556.837 348.899 565.006 335.697 579.93 323.202C591.144 313.841 602.403 308.057 602.492 307.969L603.331 309.558C602.933 309.823 559.266 332.474 558.162 361.482Z" fill="#0C2F3D"/>
<path d="M559.177 356.758C556.263 338.7 558.338 321.921 565.314 306.865C570.878 294.811 579.576 283.861 591.188 274.324C610.881 258.076 632.427 251.364 632.648 251.32L633.178 253.042C632.957 253.087 611.72 259.709 592.292 275.737C574.454 290.484 554.541 316.446 560.943 356.449L559.177 356.758Z" fill="#0C2F3D"/>
<path d="M560.899 369.43C555.733 348.59 553.967 326.601 555.6 304.039C556.925 286.025 560.413 267.613 565.976 249.289C575.469 218.117 587.876 197.851 588.009 197.63L589.554 198.557C589.422 198.778 577.103 218.868 567.698 249.819C559 278.342 551.097 322.186 562.665 368.9L560.899 369.43Z" fill="#0C2F3D"/>
<path d="M557.766 362.631H555.956C556.265 319.493 542.798 292.074 531.451 276.708C519.176 260.107 506.725 253.572 506.637 253.528L507.476 251.938C508.005 252.203 520.412 258.694 532.952 275.649C544.432 291.191 558.075 318.963 557.766 362.631Z" fill="#0C2F3D"/>
<path d="M587.036 350.753L582.488 383.161H532.109L527.605 350.753H587.036Z" fill="url(#paint13_linear_2542_708)"/>
<path opacity="0.1" d="M587.038 350.753L582.534 383.206H560.723C570.26 374.772 581.563 362.895 586.376 350.753H587.038Z" fill="black"/>
<path d="M272.309 302.45H242.285V306.865H272.309V302.45Z" fill="url(#paint14_linear_2542_708)"/>
<path d="M278.049 304.657L272.309 302.45V306.865L278.049 304.657Z" fill="#FFAE9C"/>
<path d="M288.648 302.45L276.727 360.732H346.047L333.243 302.45H288.648Z" fill="#DDDCE8"/>
<path d="M328.386 310.397H303.219V311.281H328.386V310.397Z" fill="black"/>
<path d="M328.385 316.932H292.621V317.992H328.385V316.932Z" fill="black"/>
<path d="M328.385 324.879H292.621V325.939H328.385V324.879Z" fill="black"/>
<path d="M328.385 332.827H292.621V333.887H328.385V332.827Z" fill="black"/>
<path d="M165.727 208.183C165.727 208.183 171.732 227.61 151.598 249.863V285.892H115.215L113.449 229.023L165.727 208.183Z" fill="#FCB9C0"/>
<path d="M143.828 234.321C143.828 234.321 160.43 249.157 141.355 260.813C141.355 260.813 111.155 276.841 95.436 255.868C95.436 255.868 86.6054 241.739 100.381 231.495C100.381 231.495 91.5505 227.257 95.436 218.426C95.436 218.426 70.357 180.984 113.097 160.144C113.097 160.144 147.713 147.428 160.076 171.094C160.076 171.094 175.265 170.387 175.618 188.402C175.972 206.416 162.196 226.55 143.828 234.321Z" fill="#162E31"/>
<path d="M98.0394 287.526L57.5509 294.723C48.4112 296.357 40.8169 302.671 37.5495 311.325L2.18273 404.885C0.416604 409.698 -0.289826 414.82 0.107553 419.942C0.637392 426.388 2.53598 434.291 8.49667 437.029H258.183C258.183 437.029 272.312 428.905 267.5 407.579C267.146 405.945 266.616 404.355 266.042 402.81L232.398 315.298C228.512 305.143 219.726 297.637 209.085 295.341L170.407 287.04L163.121 276.09L102.19 278.166L98.0394 287.526Z" fill="#588AFD"/>
<path d="M34.5039 437.029V395.613C34.5039 346.559 74.2419 306.821 123.296 306.821C172.35 306.821 212.088 346.559 212.088 395.613V437.029H34.5039Z" fill="url(#paint15_linear_2542_708)"/>
<path d="M202.415 437.205H43.8164V399.808C43.8164 356.096 79.404 320.508 123.116 320.508C166.827 320.508 202.415 356.096 202.415 399.808V437.205ZM45.406 435.616H200.825V399.808C200.825 356.935 165.944 322.098 123.116 322.098C80.287 322.098 45.406 356.979 45.406 399.808V435.616Z" fill="white"/>
<path d="M210.633 356.607L209.352 356.941L225.243 417.864L226.525 417.53L210.633 356.607Z" fill="white"/>
<path d="M137.604 301.081C114.556 301.081 95.438 297.858 95.1289 297.813L95.3497 296.489C95.7912 296.577 138.576 303.774 173.236 296.489L173.501 297.769C161.844 300.242 149.217 301.081 137.604 301.081Z" fill="white"/>
<path d="M461.817 300.772C461.817 300.772 441.948 305.541 449.896 319.316C457.093 331.812 467.381 329.913 467.381 329.913C467.381 329.913 472.149 337.861 477.183 342.629L483.276 340.51L461.817 300.772Z" fill="#FCB9C0"/>
<path d="M477.182 335.476C477.182 335.476 466.585 330.178 464.996 307.925C464.996 307.925 442.743 294.502 464.996 278.563C464.996 278.563 458.638 267.657 470.559 260.769C470.559 260.769 465.791 241.165 487.514 235.602C487.514 235.602 500.848 233.217 506.367 244.344C506.367 244.344 524.338 235.602 529.106 254.146C529.106 254.146 545.266 249.907 546.061 268.187C546.061 268.187 559.837 291.765 553.744 309.249L477.182 335.476Z" fill="#791714"/>
<path d="M452.678 365.147L434.443 368.194C429.983 368.945 425.788 370.799 422.212 373.581C405.301 386.783 354.878 426.874 352.715 437.029L455.945 436.852L452.678 365.147Z" fill="url(#paint16_linear_2542_708)"/>
<path d="M441.992 437.029V395.613C441.992 346.559 481.73 306.821 530.784 306.821C579.839 306.821 619.577 346.559 619.577 395.613V437.029H441.992Z" fill="url(#paint17_linear_2542_708)"/>
<path d="M610.97 437.647H452.371V400.249C452.371 356.538 487.959 320.95 531.67 320.95C575.382 320.95 610.97 356.538 610.97 400.249V437.647ZM454.005 436.058H609.424V400.249C609.424 357.377 574.543 322.54 531.715 322.54C488.886 322.54 454.005 357.421 454.005 400.249V436.058Z" fill="white"/>
<path d="M428.885 411.325L427.625 411.735L433.804 430.713L435.063 430.303L428.885 411.325Z" fill="white"/>
<defs>
<linearGradient id="paint0_linear_2542_708" x1="320.74" y1="427.534" x2="322.506" y2="190.873" gradientUnits="userSpaceOnUse">
<stop stop-color="#D3E9FE"/>
<stop offset="1" stop-color="#E9F6FF"/>
</linearGradient>
<linearGradient id="paint1_linear_2542_708" x1="143.517" y1="0" x2="143.517" y2="203.988" gradientUnits="userSpaceOnUse">
<stop stop-color="#E6F5FF"/>
<stop offset="1" stop-color="#F5FAFF"/>
</linearGradient>
<linearGradient id="paint2_linear_2542_708" x1="144.25" y1="116.538" x2="142.778" y2="201.428" gradientUnits="userSpaceOnUse">
<stop stop-color="#D3E9FE"/>
<stop offset="1" stop-color="#E9F6FF"/>
</linearGradient>
<linearGradient id="paint3_linear_2542_708" x1="150.075" y1="-2.17521" x2="150.075" y2="204.896" gradientUnits="userSpaceOnUse">
<stop stop-color="#D3E9FE"/>
<stop offset="1" stop-color="#E9F6FF"/>
</linearGradient>
<linearGradient id="paint4_linear_2542_708" x1="59.6197" y1="-0.725879" x2="59.134" y2="200.834" gradientUnits="userSpaceOnUse">
<stop stop-color="#D3E9FE"/>
<stop offset="1" stop-color="#E9F6FF"/>
</linearGradient>
<linearGradient id="paint5_linear_2542_708" x1="412.753" y1="325.301" x2="424.639" y2="325.301" gradientUnits="userSpaceOnUse">
<stop stop-color="#2B233C"/>
<stop offset="1" stop-color="#635C70"/>
</linearGradient>
<linearGradient id="paint6_linear_2542_708" x1="185.788" y1="191.12" x2="192.411" y2="289.15" gradientUnits="userSpaceOnUse">
<stop stop-color="#DCE9FF"/>
<stop offset="1" stop-color="#B6D2FF"/>
</linearGradient>
<linearGradient id="paint7_linear_2542_708" x1="270.496" y1="185.396" x2="277.12" y2="283.426" gradientUnits="userSpaceOnUse">
<stop stop-color="#DCE9FF"/>
<stop offset="1" stop-color="#B6D2FF"/>
</linearGradient>
<linearGradient id="paint8_linear_2542_708" x1="557.262" y1="277.24" x2="594.36" y2="180.612" gradientUnits="userSpaceOnUse">
<stop stop-color="#1C59EB"/>
<stop offset="1" stop-color="#6AF2ED"/>
</linearGradient>
<linearGradient id="paint9_linear_2542_708" x1="572.606" y1="269.545" x2="643.213" y2="269.545" gradientUnits="userSpaceOnUse">
<stop stop-color="#1C59EB"/>
<stop offset="1" stop-color="#6AF2ED"/>
</linearGradient>
<linearGradient id="paint10_linear_2542_708" x1="545.017" y1="292.799" x2="498.593" y2="244.655" gradientUnits="userSpaceOnUse">
<stop stop-color="#1C59EB"/>
<stop offset="1" stop-color="#6AF2ED"/>
</linearGradient>
<linearGradient id="paint11_linear_2542_708" x1="530.071" y1="320.424" x2="488.594" y2="313.511" gradientUnits="userSpaceOnUse">
<stop stop-color="#1C59EB"/>
<stop offset="1" stop-color="#6AF2ED"/>
</linearGradient>
<linearGradient id="paint12_linear_2542_708" x1="565.931" y1="321.072" x2="608.71" y2="321.072" gradientUnits="userSpaceOnUse">
<stop stop-color="#1C59EB"/>
<stop offset="1" stop-color="#6AF2ED"/>
</linearGradient>
<linearGradient id="paint13_linear_2542_708" x1="527.598" y1="366.962" x2="587.017" y2="366.962" gradientUnits="userSpaceOnUse">
<stop stop-color="#E3356F"/>
<stop offset="1" stop-color="#E882AC"/>
</linearGradient>
<linearGradient id="paint14_linear_2542_708" x1="242.285" y1="304.657" x2="272.309" y2="304.657" gradientUnits="userSpaceOnUse">
<stop stop-color="#2B233C"/>
<stop offset="1" stop-color="#635C70"/>
</linearGradient>
<linearGradient id="paint15_linear_2542_708" x1="34.517" y1="371.92" x2="212.093" y2="371.92" gradientUnits="userSpaceOnUse">
<stop stop-color="#2B233C"/>
<stop offset="1" stop-color="#635C70"/>
</linearGradient>
<linearGradient id="paint16_linear_2542_708" x1="463.872" y1="401.082" x2="340.673" y2="401.082" gradientUnits="userSpaceOnUse">
<stop stop-color="#E3356F"/>
<stop offset="1" stop-color="#E882AC"/>
</linearGradient>
<linearGradient id="paint17_linear_2542_708" x1="442.001" y1="371.92" x2="619.577" y2="371.92" gradientUnits="userSpaceOnUse">
<stop stop-color="#2B233C"/>
<stop offset="1" stop-color="#635C70"/>
</linearGradient>
</defs>
</svg>
