<svg width="100" height="100" viewBox="0 0 100 100" fill="none" xmlns="http://www.w3.org/2000/svg">
<g clip-path="url(#clip0_2551_2553)">
<path d="M38.7164 46.5114C36.7133 44.5177 33.7086 44.5177 31.7055 46.5114C29.7023 48.5052 29.7023 51.4959 31.7055 53.4896L46.7289 68.4429C47.7305 69.4398 48.7321 69.9382 50.2344 69.9382C51.7368 69.9382 52.7383 69.4398 53.7399 68.4429L88.7947 28.5675C90.297 26.0753 90.297 23.0847 87.7931 21.5893C85.79 20.094 82.7853 20.094 81.2829 22.0878L50.2344 57.4772L38.7164 46.5114Z" fill="#011F6F"/>
<path d="M95.3049 45.0161C92.3002 45.0161 90.2971 47.0098 90.2971 50.0005C90.2971 71.932 72.2689 89.8759 50.2345 89.8759C28.2001 89.8759 10.1719 71.932 10.1719 50.0005C10.1719 39.5332 14.1782 29.5643 21.6899 22.0877C29.2016 14.1126 39.2173 10.1251 50.2345 10.1251C53.2392 10.1251 56.7447 10.6235 59.7494 11.122C62.2533 12.1189 65.258 10.6235 66.2595 7.63289C67.2611 4.64223 65.258 2.64846 62.7541 1.65158H62.2533C58.247 0.654692 54.2408 0.15625 50.2345 0.15625C22.6915 0.15625 0.15625 22.5862 0.15625 50.4989C0.15625 63.4584 5.66486 76.4179 14.6789 85.3899C24.1938 94.8603 36.7134 99.8447 49.7337 99.8447C77.2768 99.8447 99.812 77.4148 99.812 50.0005C100.313 47.0098 97.8088 45.0161 95.3049 45.0161Z" fill="#011F6F"/>
</g>
<defs>
<clipPath id="clip0_2551_2553">
<rect width="100" height="100" fill="white"/>
</clipPath>
</defs>
</svg>
