<svg width="42" height="42" viewBox="0 0 42 42" fill="none" xmlns="http://www.w3.org/2000/svg">
<g clip-path="url(#clip0_2566_5256)">
<path d="M42 21C42 32.5981 32.5981 42 21 42C9.40187 42 0 32.5981 0 21C0 9.40187 9.40187 0 21 0C32.5981 0 42 9.40187 42 21Z" fill="#011F6F"/>
<path d="M21.9196 41.9785C33.09 41.4963 41.9981 32.2889 41.9981 21C41.9981 20.9183 41.9958 20.8369 41.9949 20.7552L27.418 6.17798L11.832 22.4689L20.4918 31.1286L16.4988 36.5577L21.9196 41.9785Z" fill="#011F6F"/>
<path d="M27.4183 6.17809V10.9333C27.4183 10.9333 21.9587 10.1409 21.9587 13.6631V17.1853H26.8899L26.2737 22.5568H21.9587V36.5579H16.4992V22.5568L11.832 22.4687V17.1853H16.411V13.1347C16.411 13.1347 16.1089 7.10896 22.0468 6.00218C24.5126 5.54235 27.4183 6.17809 27.4183 6.17809Z" fill="white"/>
<path d="M27.4217 10.9333V6.17809C27.4217 6.17809 24.516 5.54235 22.0503 6.00218C21.6651 6.07395 21.3069 6.16688 20.9727 6.27679V36.5579H21.9622V22.5568H26.2768L26.8933 17.1853H21.9622C21.9622 17.1853 21.9622 17.1853 21.9622 13.6631C21.9622 10.1409 27.4217 10.9333 27.4217 10.9333Z" fill="#DCE1EB"/>
</g>
<defs>
<clipPath id="clip0_2566_5256">
<rect width="42" height="42" fill="white"/>
</clipPath>
</defs>
</svg>
