<svg width="42" height="42" viewBox="0 0 42 42" fill="none" xmlns="http://www.w3.org/2000/svg">
<g clip-path="url(#clip0_2566_5268)">
<path d="M2.62645 2.85777C-0.674053 6.28602 0.00144733 9.92777 0.00144733 20.9913C0.00144733 30.1788 -1.60155 39.389 6.78795 41.5573C9.4077 42.231 32.6197 42.231 35.2359 41.5538C38.7289 40.6525 41.5709 37.8193 41.9594 32.879C42.0137 32.1895 42.0137 9.80527 41.9577 9.10177C41.5447 3.83952 38.3054 0.80677 34.0372 0.19252C33.0589 0.0507702 32.8629 0.00877016 27.8439 2.01557e-05C10.0412 0.00877016 6.1387 -0.78398 2.62645 2.85777Z" fill="#011F6F"/>
<path d="M20.9981 5.49324C14.6439 5.49324 8.60988 4.92799 6.30513 10.843C5.35313 13.286 5.49138 16.4587 5.49138 21.0017C5.49138 24.9882 5.36363 28.735 6.30513 31.1587C8.60463 37.0772 14.6876 36.5102 20.9946 36.5102C27.0794 36.5102 33.3531 37.1437 35.6859 31.1587C36.6396 28.6912 36.4996 25.5657 36.4996 21.0017C36.4996 14.9432 36.8339 11.032 33.8956 8.09549C30.9206 5.12049 26.8974 5.49324 20.9911 5.49324H20.9981ZM19.6086 8.28799C32.8631 8.26699 34.5501 6.79349 33.6191 27.2632C33.2884 34.503 27.7759 33.7085 20.9999 33.7085C8.64488 33.7085 8.28963 33.355 8.28963 20.9947C8.28963 8.49099 9.26963 8.29499 19.6086 8.28449V8.28799ZM29.2756 10.8622C28.2484 10.8622 27.4154 11.6952 27.4154 12.7225C27.4154 13.7497 28.2484 14.5827 29.2756 14.5827C30.3029 14.5827 31.1359 13.7497 31.1359 12.7225C31.1359 11.6952 30.3029 10.8622 29.2756 10.8622ZM20.9981 13.0375C16.6004 13.0375 13.0356 16.604 13.0356 21.0017C13.0356 25.3995 16.6004 28.9642 20.9981 28.9642C25.3959 28.9642 28.9589 25.3995 28.9589 21.0017C28.9589 16.604 25.3959 13.0375 20.9981 13.0375ZM20.9981 15.8322C27.8319 15.8322 27.8406 26.1712 20.9981 26.1712C14.1661 26.1712 14.1556 15.8322 20.9981 15.8322Z" fill="white"/>
</g>
<defs>
<clipPath id="clip0_2566_5268">
<rect width="42" height="42" fill="white"/>
</clipPath>
</defs>
</svg>
