<svg width="852" height="942" viewBox="0 0 852 942" fill="none" xmlns="http://www.w3.org/2000/svg">
<mask id="mask0_2551_2430" style="mask-type:alpha" maskUnits="userSpaceOnUse" x="1" y="92" width="833" height="850">
<g clip-path="url(#clip0_2551_2430)">
<g clip-path="url(#clip1_2551_2430)">
<path d="M178.541 838.956H469.887C697.705 838.956 811.602 838.956 831.401 777.28C851.201 715.604 758.494 649.4 573.131 516.965L281.746 308.805C158.792 220.948 97.3094 177.026 49.1547 201.804C1 226.583 1 302.14 1 453.256V661.416C1 745.117 1 786.955 27.0007 812.956C53.0014 838.956 94.9164 838.956 178.541 838.956Z" fill="black"/>
</g>
</g>
</mask>
<g mask="url(#mask0_2551_2430)">
<rect x="1" y="92.8652" width="833" height="848.173" fill="url(#paint0_linear_2551_2430)"/>
</g>
<path d="M851.771 699.645H0.222656C0.222656 699.645 24.7578 562.086 119.308 565.674C213.858 569.263 155.751 465.495 163.591 395.818C175.559 289.359 394.939 207.721 474.169 397.612C520.846 509.454 581.286 483.138 626.766 471.775C652.558 465.316 693.789 492.708 687.206 559.095C676.734 664.777 711.741 672.133 760.811 661.367C809.882 650.602 851.771 699.645 851.771 699.645Z" fill="url(#paint1_linear_2551_2430)"/>
<path d="M462.201 157.183C462.201 157.183 480.034 154.312 479.316 172.075C478.598 189.838 472.195 208.738 472.195 208.738C472.195 208.738 469.801 219.324 474.648 229.551C474.648 229.551 444.607 225.484 439.641 211.429L440.837 160.054L462.201 157.183Z" fill="#0C2F3D"/>
<path d="M454.66 260.532L453.045 212.207C453.045 212.207 480.512 219.443 470.219 166.872C470.219 166.872 459.807 156.346 446.582 162.984C433.357 169.623 432.698 182.183 432.698 182.183L424.68 256.405L454.66 260.532Z" fill="#FFAAAD"/>
<path d="M469.741 164.958C469.741 164.958 464.774 172.015 458.671 175.783C453.524 178.953 447.301 178.774 444.967 180.089C444.967 180.089 438.683 204.671 451.549 227.039C451.549 227.039 433.118 227.278 419.953 209.934C419.953 209.934 422.347 214.36 424.86 217.829C424.86 217.829 402.479 218.726 416.063 168.487C424.86 135.951 463.578 151.74 469.382 157.243L469.741 164.958Z" fill="#0C2F3D"/>
<path d="M427.734 580.686C418.04 622.671 408.046 666.75 407.567 672.552C407.208 676.32 422.887 684.035 422.887 684.035L386.922 683.257L399.668 574.346L408.226 501.081H446.285C446.285 501.081 437.129 539.897 427.734 580.686Z" fill="#FFAAAD"/>
<path d="M385.962 674.227L383.867 688.64C383.329 692.229 386.141 695.399 389.732 695.399H441.375C442.751 695.399 443.17 693.545 441.973 692.947L418.635 681.284C418.396 681.164 418.097 681.104 417.857 681.164C414.745 681.703 394.698 684.573 388.475 673.748C387.757 672.731 386.141 673.03 385.962 674.227Z" fill="#173A49"/>
<path d="M488.055 683.975L452.09 683.198L453.706 579.669L454.902 501.081H492.962C492.962 501.081 488.893 535.172 484.345 573.031C479.078 617.169 473.274 666.391 472.735 672.492C472.436 676.26 488.055 683.975 488.055 683.975Z" fill="#FFAAAD"/>
<path opacity="0.1" d="M446.281 501.081C446.281 501.081 437.125 539.897 427.73 580.686C416.719 580.626 410.136 576.978 399.664 574.346L408.221 501.081H446.281Z" fill="black"/>
<path opacity="0.1" d="M492.961 501.081C492.961 501.081 488.891 535.172 484.343 573.031C473.572 577.038 463.399 578.832 453.645 579.669L454.841 501.081H492.961Z" fill="black"/>
<path d="M451.188 674.227L449.094 688.64C448.555 692.229 451.368 695.399 454.958 695.399H506.602C507.978 695.399 508.397 693.545 507.2 692.947L483.862 681.284C483.622 681.164 483.323 681.104 483.084 681.164C479.972 681.703 459.925 684.573 453.701 673.748C452.983 672.731 451.368 673.03 451.188 674.227Z" fill="#173A49"/>
<path d="M411.038 339.299L481.651 344.084C481.651 344.084 483.447 539.059 482.848 565.973C482.848 565.973 428.991 588.102 381.117 559.992C381.117 559.992 393.684 403.294 411.038 339.299Z" fill="#123245"/>
<path d="M426.293 241.513C426.293 241.513 436.705 252.577 446.639 255.867C448.434 256.465 453.102 247.374 459.804 241.513L473.867 348.869C473.867 348.869 451.127 359.036 430.183 348.869L426.293 241.513Z" fill="#0A75C4"/>
<path d="M546.579 270.221L561.539 286.967L523.779 329.311C520.368 333.139 514.324 333.02 511.033 329.072L481.65 293.307L472.375 239.061C472.375 239.061 484.643 241.214 492.422 250.185L522.642 295.938L546.579 270.221Z" fill="url(#paint2_linear_2551_2430)"/>
<path d="M434.135 373.091C427.613 472.254 413.43 604.849 413.43 604.849C394.281 606.045 357.777 594.083 357.777 594.083L385.364 426.979L398.47 347.673L393.264 349.766L381.714 354.431C370.943 358.797 359.872 348.869 362.984 337.685L387.16 251.082C388.237 247.195 391.229 244.085 395.119 242.948L417.679 236.07L422.107 233.199C422.107 233.199 425.339 236.13 426.835 239.778C429.587 246.537 432.28 260.113 433.477 274.467C434.195 282.721 437.666 319.981 434.135 373.091Z" fill="url(#paint3_linear_2551_2430)"/>
<path d="M486.438 339.299C486.438 339.299 482.249 321.955 486.438 296.835C486.438 296.835 489.43 275.903 481.052 255.568L474.47 239.419L460.407 236.728L453.824 233.14C453.824 233.14 466.092 286.07 467.289 371.596L479.855 608.437C479.855 608.437 500.8 609.035 507.981 601.858C507.981 601.858 501.997 401.5 486.438 339.299Z" fill="url(#paint4_linear_2551_2430)"/>
<path d="M430.54 429.371L429.343 429.311C429.403 404.73 428.685 368.366 426.291 346.835C422.76 314.957 410.852 275.544 410.732 275.185L410.613 274.706L421.564 268.367L406.902 257.84L422.641 232.661L425.334 236.908L433.412 263.582V263.642C433.472 264.18 436.464 319.503 436.105 336.369C435.686 359.335 430.6 428.653 430.54 429.371ZM412.049 275.305C413.365 279.79 424.137 316.572 427.488 346.716C429.403 363.941 430.3 390.675 430.48 413.282C432.036 391.213 434.609 352.398 434.908 336.309C435.267 319.742 432.335 266.034 432.215 263.761L424.197 237.326L422.641 234.874L408.458 257.541L423.718 268.546L412.049 275.305Z" fill="#0C2F3D"/>
<path d="M471.774 416.213C468.901 377.278 474.886 276.5 475.364 268.845L466.268 265.615L476.86 258.737L453.402 233.558L454.3 232.721L478.715 258.977L468.961 265.256L476.621 268.008V268.486C476.561 269.563 470.098 375.962 473.03 416.153L471.774 416.213Z" fill="#0C2F3D"/>
<path d="M475.187 324.287L448.857 330.029L429.708 325.723L423.185 328.414L419.175 330.029L415.824 318.067L416.901 317.948L426.835 317.11L432.101 314.24C445.027 309.455 459.389 314.24 459.389 314.24C456.038 318.546 453.165 316.154 448.857 317.11C444.548 318.067 445.984 319.981 445.984 319.981L454.602 321.895L470.4 319.981C472.794 320.46 475.187 324.287 475.187 324.287Z" fill="#FFAAAD"/>
<path d="M425.519 230.987C425.519 230.987 420.313 237.326 420.911 242.111C421.51 246.896 429.887 261.25 429.887 261.25L436.47 251.082L447.242 257.661L457.415 246.896L466.092 255.388C466.092 255.388 465.793 239.719 453.824 233.738C453.824 233.738 453.824 237.924 452.627 242.111C449.456 253.295 447.84 254.073 447.84 254.073C447.84 254.073 436.949 248.032 431.683 240.915C428.272 236.25 425.04 230.329 425.519 230.987Z" fill="#045593"/>
<path opacity="0.1" d="M396.973 319.862L401.162 295.34L403.914 318.486L396.973 319.862Z" fill="black"/>
<path d="M481.838 292.571L480.914 293.331L507.37 325.483L508.294 324.724L481.838 292.571Z" fill="#0C2F3D"/>
<path d="M397.451 314.658L389.911 313.522C386.5 312.984 384.106 309.934 384.465 306.525L386.859 281.106L389.073 281.285L386.679 306.704C386.44 308.917 388.056 310.95 390.27 311.309L397.81 312.446L397.451 314.658Z" fill="#A0A0A0"/>
<path d="M410.258 314.658L417.798 313.522C421.209 312.984 423.602 309.934 423.243 306.525L420.85 281.106L418.635 281.285L421.029 306.704C421.268 308.917 419.653 310.95 417.439 311.309L409.898 312.446L410.258 314.658Z" fill="#A0A0A0"/>
<path d="M395.118 313.163C394.998 314.3 395.776 315.316 396.913 315.496L398.828 315.735C399.965 315.855 400.982 315.077 401.162 313.941C401.281 312.804 400.503 311.788 399.366 311.608L397.451 311.369C396.255 311.249 395.237 312.027 395.118 313.163Z" fill="#123245"/>
<path d="M412.591 313.163C412.711 314.3 411.933 315.316 410.796 315.496L408.881 315.735C407.744 315.855 406.727 315.077 406.547 313.941C406.428 312.804 407.206 311.788 408.343 311.608L410.257 311.369C411.454 311.249 412.472 312.027 412.591 313.163Z" fill="#123245"/>
<path d="M414.205 265.257C411.692 262.864 408.52 261.429 405.169 261.13C406.366 254.85 410.914 239.001 427.311 233.08L426.473 230.807C408.64 237.266 403.912 254.551 402.716 261.07C402.656 261.07 402.656 261.07 402.596 261.07C396.492 261.429 391.705 265.317 388.773 272.314C387.157 276.202 386.499 279.97 386.319 281.644C386.259 282.123 386.618 282.541 387.097 282.601L388.593 282.721C389.012 282.781 389.431 282.422 389.491 282.003C389.969 278.534 392.423 264.898 402.835 264.24C406.725 264.001 415.941 265.317 418.334 282.003C418.394 282.422 418.813 282.781 419.232 282.721L420.728 282.541C421.207 282.482 421.506 282.063 421.446 281.584C420.369 274.288 417.975 268.785 414.205 265.257Z" fill="#123245"/>
<path d="M481.351 270.879C480.633 259.096 475.726 249.467 466.81 242.29C460.107 236.848 453.525 234.934 453.465 234.874L454.123 232.601C454.422 232.661 461.184 234.694 468.246 240.376C474.768 245.639 482.787 255.209 483.745 270.759L481.351 270.879Z" fill="#123245"/>
<path d="M482.785 282.182C486.619 282.182 489.727 279.076 489.727 275.245C489.727 271.413 486.619 268.307 482.785 268.307C478.952 268.307 475.844 271.413 475.844 275.245C475.844 279.076 478.952 282.182 482.785 282.182Z" fill="#A0A0A0"/>
<path d="M482.791 279.072C484.906 279.072 486.621 277.359 486.621 275.245C486.621 273.131 484.906 271.417 482.791 271.417C480.676 271.417 478.961 273.131 478.961 275.245C478.961 277.359 480.676 279.072 482.791 279.072Z" fill="#123245"/>
<path d="M534.19 228.953H593.434L563.333 307.9H504.09L534.19 228.953Z" fill="url(#paint5_linear_2551_2430)"/>
<path d="M583.321 265.137H573.866C573.208 265.137 572.67 264.718 572.55 264.06C572.37 263.044 572.55 261.549 574.824 260.412H572.49C570.635 260.412 569.618 258.259 570.814 256.824C571.114 256.465 571.473 256.106 572.011 255.687L569.677 255.089C568.361 254.73 567.463 253.474 567.703 252.099C567.763 251.919 567.763 251.74 567.882 251.561C568.301 250.604 569.259 250.006 570.276 250.006H577.696C577.696 250.006 574.884 246.238 579.551 245.281H587.091C587.091 245.281 588.947 247.135 587.091 250.006C587.091 250.006 588.947 253.773 585.236 255.628C585.236 255.628 587.091 258.438 584.279 260.352C584.219 260.412 585.177 263.283 583.321 265.137Z" fill="#FFAAAD"/>
<path d="M587.266 249.288H577.691V250.484H587.266V249.288Z" fill="#0C2F3D"/>
<path d="M571.338 254.95L571.312 256.146L585.432 256.442L585.457 255.246L571.338 254.95Z" fill="#0C2F3D"/>
<path d="M573.833 259.865L573.809 261.061L584.279 261.274L584.303 260.078L573.833 259.865Z" fill="#0C2F3D"/>
<path d="M414.385 318.068L414.265 316.871L380.754 321.058L380.874 322.254L407.264 318.965L411.333 334.933L412.53 334.694L408.461 318.785L414.385 318.068Z" fill="#0C2F3D"/>
<path opacity="0.1" d="M385.367 426.979L398.473 347.673L393.266 349.766L407.748 343.785L385.367 426.979Z" fill="black"/>
<path opacity="0.1" d="M423.185 328.414L419.175 330.029L415.824 318.068L416.901 317.948L423.185 328.414Z" fill="black"/>
<path d="M698.812 655.447V699.047H288.656V655.207L698.812 655.447Z" fill="url(#paint6_linear_2551_2430)"/>
<path d="M295.241 655.447V699.047H127.684V655.207L295.241 655.447Z" fill="url(#paint7_linear_2551_2430)"/>
<path d="M737.349 388.103H277.285V672.013H737.349V388.103Z" fill="#C0C6CB"/>
<path d="M294.88 388.522H107.695V672.432H294.88V388.522Z" fill="#8B969F"/>
<path d="M748.838 388.582V410.172H277.285V388.462L748.838 388.582Z" fill="url(#paint8_linear_2551_2430)"/>
<path d="M294.042 388.582V410.172H82.8008V388.462L294.042 388.582Z" fill="url(#paint9_linear_2551_2430)"/>
<path d="M737.469 462.624H294.879V487.325H737.469V462.624Z" fill="#8B969F"/>
<path d="M737.469 518.246H294.879V542.947H737.469V518.246Z" fill="#8B969F"/>
<path d="M737.469 575.064H294.879V599.765H737.469V575.064Z" fill="#8B969F"/>
<path d="M403.256 616.511C450.682 616.511 489.129 578.086 489.129 530.686C489.129 483.286 450.682 444.861 403.256 444.861C355.829 444.861 317.383 483.286 317.383 530.686C317.383 578.086 355.829 616.511 403.256 616.511Z" fill="#8B969F"/>
<path d="M414.025 616.511C461.452 616.511 499.898 578.086 499.898 530.686C499.898 483.286 461.452 444.861 414.025 444.861C366.599 444.861 328.152 483.286 328.152 530.686C328.152 578.086 366.599 616.511 414.025 616.511Z" fill="white"/>
<path d="M476.857 512.803L430.479 512.744V466.99H398.165V512.744L352.984 512.684V544.98L398.165 545.04V590.794H430.479V545.04L476.857 545.1V512.803Z" fill="url(#paint10_linear_2551_2430)"/>
<path d="M350.834 273.032L360.229 357.72C360.768 362.326 357.117 366.393 352.45 366.393H226.602C222.593 366.393 219.242 363.402 218.823 359.455L209.428 274.766C208.889 270.161 212.54 266.094 217.207 266.094H343.114C347.004 266.094 350.355 269.084 350.834 273.032Z" fill="#133346"/>
<path d="M202.725 274.766L212.12 359.455C212.539 363.402 215.89 366.393 219.899 366.393H345.747C350.414 366.393 354.065 362.326 353.526 357.72L344.131 273.032C343.712 269.084 340.361 266.094 336.351 266.094H210.444C205.836 266.094 202.186 270.101 202.725 274.766Z" fill="#A6A5BC"/>
<path d="M295.42 322.912H282.016V366.393H295.42V322.912Z" fill="#133346"/>
<path d="M295.418 322.912H267.532L249.699 388.701H318.816V382.003H280.877L295.418 322.912Z" fill="#A6A5BC"/>
<path d="M313.788 356.345H311.395V359.933H313.788V356.345Z" fill="#133346"/>
<path d="M319.179 356.345H316.785V359.933H319.179V356.345Z" fill="#133346"/>
<path d="M324.562 356.345H322.168V359.933H324.562V356.345Z" fill="#133346"/>
<path d="M329.948 356.345H327.555V359.933H329.948V356.345Z" fill="#133346"/>
<path d="M726.168 677.635C726.049 676.2 725.69 674.406 725.211 672.372C722.039 659.035 712.584 634.872 712.584 634.872H739.692L743.104 666.152L745.437 687.623L711.926 688.341C711.866 688.341 726.467 681.164 726.168 677.635Z" fill="#FCB9C0"/>
<path d="M746.278 679.25L748.253 692.707C748.731 696.056 746.158 699.047 742.807 699.047H694.694C693.438 699.047 693.019 697.312 694.156 696.774L715.938 685.889C716.178 685.769 716.417 685.71 716.656 685.769C719.588 686.248 738.199 688.939 744.064 678.891C744.602 677.875 746.098 678.114 746.278 679.25Z" fill="#0C2F3D"/>
<path d="M667.047 634.872L665.072 666.272L663.696 687.623L631.441 688.341C631.441 688.341 646.043 681.164 645.684 677.635C645.504 675.961 645.325 673.688 645.025 671.176C643.529 657.659 640.537 634.872 640.537 634.872H667.047Z" fill="#FCB9C0"/>
<path d="M665.853 679.25L667.828 692.707C668.307 696.056 665.734 699.047 662.383 699.047H614.21C612.953 699.047 612.534 697.312 613.671 696.774L635.454 685.889C635.693 685.769 635.932 685.71 636.172 685.769C639.104 686.248 657.715 688.939 663.579 678.891C664.178 677.875 665.674 678.114 665.853 679.25Z" fill="#0C2F3D"/>
<path d="M668.422 267.35L661.481 239.718C661.481 239.718 624.977 254.491 639.279 192.888C639.279 192.888 645.204 175.604 671.355 184.515C671.355 184.515 682.186 186.489 683.203 206.226C684.161 225.962 694.035 264.419 694.035 264.419L668.422 267.35Z" fill="#FCB9C0"/>
<path opacity="0.1" d="M667.048 634.872L665.073 666.272L645.086 671.176C643.59 657.659 640.598 634.872 640.598 634.872H667.048Z" fill="black"/>
<path opacity="0.1" d="M743.105 666.152L725.213 672.372C722.041 659.035 712.586 634.872 712.586 634.872H739.694L743.105 666.152Z" fill="black"/>
<path d="M713.366 307.242L713.187 316.333L712.768 339.299L691.763 441.931H674.828L688.831 342.828L685.241 316.931L683.625 304.91L713.366 307.242Z" fill="#FCB9C0"/>
<path opacity="0.1" d="M713.362 307.242L713.183 316.333L685.237 316.931L683.621 304.91L713.362 307.242Z" fill="black"/>
<path d="M749.15 665.733H729.043C720.246 665.733 712.287 665.733 712.287 665.733C712.287 665.733 667.406 521.296 666.029 509.394L669.381 554.909L677.579 665.733H640.298L622.285 490.914V362.445L689.966 355.986C689.966 355.986 695.172 364.837 700.678 378.833C708.098 397.792 715.997 426.141 712.347 454.969L718.75 532.122C718.75 532.122 750.466 665.733 749.15 665.733Z" fill="url(#paint11_linear_2551_2430)"/>
<path opacity="0.2" d="M700.615 378.833L622.223 370.22V362.445L689.904 355.986C689.964 355.986 695.17 364.837 700.615 378.833Z" fill="black"/>
<path d="M693.677 336.249C692.6 343.426 694.096 364.957 694.096 364.957L642.273 366.752L629.766 367.17L617.199 328.235L618.276 322.194L618.456 321.297C625.038 278.594 630.065 265.556 636.169 259.754C637.665 258.319 650.711 253.654 660.465 250.364C666.449 248.331 671.176 246.776 671.176 246.776C676.981 247.434 692.779 255.269 703.431 270.52C707.082 275.723 709.535 282.123 711.151 288.403C714.322 300.544 714.502 311.967 714.502 311.967L699.541 312.386C699.541 312.326 694.575 330.268 693.677 336.249Z" fill="url(#paint12_linear_2551_2430)"/>
<path opacity="0.1" d="M711.15 288.343C702.952 280.388 693.796 283.379 693.796 283.379C657.293 283.379 654.301 254.073 654.301 254.073L660.465 250.364C666.449 248.331 671.176 246.776 671.176 246.776C676.981 247.434 692.779 255.269 703.431 270.52C707.081 275.663 709.535 282.123 711.15 288.343Z" fill="black"/>
<path d="M647.418 324.288L644.605 332.242L631.559 369.383C630.004 374.287 625.875 377.876 620.788 378.653L558.553 388.641H517.262L520.553 384.814C521.989 383.199 523.784 381.943 525.819 381.225L547.362 373.749C548.619 373.33 549.995 373.151 551.372 373.33L561.245 374.467L609.657 355.268L617.437 325.843L618.035 323.51L647.418 324.288Z" fill="#FCB9C0"/>
<path d="M674.884 636.846L666.027 510.89L666.087 510.83L675.063 433.677L676.2 433.857L667.224 510.89L676.021 636.786L674.884 636.846Z" fill="white"/>
<path d="M707.376 231.884C700.315 227.338 696.784 222.793 696.604 202.099C696.425 181.405 682.183 177.996 682.183 177.996C665.068 162.865 639.695 174.647 635.865 185.472C631.676 197.314 646.277 195.58 650.167 198.391C653.458 200.783 654.476 210.053 654.835 214.24C654.955 215.735 654.416 217.589 654.595 218.965C653.937 223.271 651.962 230.807 649.928 238.403C648.611 243.367 648.432 254.013 651.424 260.532C651.424 260.532 647.953 246.238 653.937 233.857C654.835 232.063 655.912 229.431 656.81 226.62C656.69 229.671 655.553 232.721 654.895 234.874C652.8 241.572 648.911 255.508 656.989 266.094C664.769 276.321 697.801 283.737 712.403 270.639C727.064 257.541 714.437 236.369 707.376 231.884Z" fill="#0C2F3D"/>
<path opacity="0.1" d="M647.414 324.288L644.602 332.182L617.434 325.843L618.032 323.57L647.414 324.288Z" fill="black"/>
<path opacity="0.1" d="M712.285 665.734C712.285 665.734 667.404 521.296 666.027 509.394L673.448 458.557C675.841 530.327 712.644 631.164 729.041 665.674C720.244 665.733 712.285 665.734 712.285 665.734Z" fill="black"/>
<path d="M167.242 332.481C167.242 332.481 169.875 324.587 176.757 320.878C176.757 320.878 184.118 317.948 185.434 315.974C185.434 316.034 176.218 328.295 167.242 332.481Z" fill="url(#paint13_linear_2551_2430)"/>
<path d="M163.11 375.484H161.015C161.015 375.484 159.16 347.792 152.817 333.02C151.74 330.508 150.962 327.218 147.072 323.809C141.746 319.144 131.034 312.386 110.329 306.943L97.3436 302.757L97.1641 302.697C97.1641 302.697 102.191 299.826 105.362 300.304C105.362 300.304 115.655 294.264 121.46 300.544C121.46 300.544 133.069 297.912 135.702 304.252C135.702 304.252 153.116 303.175 148.867 322.194C148.867 322.254 158.622 328.833 163.11 375.484Z" fill="url(#paint14_linear_2551_2430)"/>
<path d="M164.364 371.775C164.364 371.775 165.441 348.57 166.997 341.752C166.997 341.752 170.946 331.465 177.828 326.74C177.828 326.74 186.266 320.938 185.727 315.675C185.727 315.675 179.923 324.108 170.408 327.816C170.408 327.816 155.088 335.711 164.603 345.759L163.047 373.151L164.364 371.775Z" fill="url(#paint15_linear_2551_2430)"/>
<path d="M147.072 323.809C141.746 319.144 131.035 312.386 110.329 306.943L97.3438 302.757C102.191 302.338 110.329 302.278 114.578 305.867C114.578 305.867 129.898 302.697 135.702 312.745C136.54 314.18 138.874 314.3 142.046 314.3C144.978 314.3 148.389 314.778 147.072 323.809Z" fill="url(#paint16_linear_2551_2430)"/>
<path d="M147.551 362.326L152.637 388.641H174.719L179.805 362.326H147.551Z" fill="url(#paint17_linear_2551_2430)"/>
<path opacity="0.08" d="M166.281 388.641H174.719L179.805 362.326H170.41L166.281 388.641Z" fill="black"/>
<path d="M105.548 546.954C105.548 546.954 83.3468 400.304 154.559 419.682C154.559 419.742 189.686 435.89 105.548 546.954Z" fill="url(#paint18_linear_2551_2430)"/>
<path d="M123.855 546.954C123.855 546.954 157.786 466.093 207.454 490.854C207.454 490.914 224.21 510.292 123.855 546.954Z" fill="url(#paint19_linear_2551_2430)"/>
<path d="M91.1275 550.483C91.1275 550.483 27.9346 512.505 35.9534 491.751C35.9534 491.811 59.4113 466.273 91.1275 550.483Z" fill="url(#paint20_linear_2551_2430)"/>
<path d="M80.6514 579.968C80.6514 579.968 31.2221 552.337 28.5292 570.758C28.5292 570.758 26.8536 585.89 80.6514 579.968Z" fill="url(#paint21_linear_2551_2430)"/>
<path d="M116.08 599.167C113.267 600.363 138.82 545.997 165.389 559.574C165.389 559.574 181.487 571.236 116.08 599.167Z" fill="url(#paint22_linear_2551_2430)"/>
<path d="M104.345 614.358L102.19 614.298C102.549 605.507 99.7367 597.911 93.9321 591.631C76.937 573.39 39.2966 572.134 38.9375 572.134L38.9973 569.98C40.5532 570.04 77.8945 571.296 95.488 590.136C101.712 596.834 104.704 604.968 104.345 614.358Z" fill="#2B322A"/>
<path d="M106.561 626.679L104.406 626.619C105.005 611.667 114.759 595.818 132.711 580.866C146.176 569.622 159.64 562.684 159.76 562.624L160.717 564.538C160.179 564.837 107.877 591.93 106.561 626.679Z" fill="#2B322A"/>
<path d="M107.759 621.057C104.289 599.466 106.742 579.311 115.12 561.308C121.822 546.894 132.235 533.796 146.118 522.313C169.696 502.875 195.547 494.801 195.787 494.741L196.445 496.775C196.206 496.835 170.713 504.789 147.435 523.988C126.071 541.631 102.194 572.732 109.914 620.698L107.759 621.057Z" fill="#2B322A"/>
<path d="M109.792 636.188C103.628 611.248 101.473 584.873 103.448 557.899C105.004 536.308 109.193 514.239 115.895 492.349C127.265 455.029 142.166 430.747 142.286 430.507L144.141 431.644C144.021 431.883 129.24 455.986 117.93 493.067C107.518 527.217 98.0027 579.729 111.886 635.71L109.792 636.188Z" fill="#2B322A"/>
<path d="M106.09 628.054H103.936C104.295 576.38 88.1978 543.545 74.5539 525.124C59.8328 505.208 44.9322 497.433 44.8125 497.313L45.77 495.399C46.3684 495.698 61.269 503.533 76.2893 523.808C90.1127 542.528 106.45 575.782 106.09 628.054Z" fill="#2B322A"/>
<path d="M141.153 613.82L141.093 613.999L129.304 699.047H81.7901L69.9414 613.82H141.153Z" fill="url(#paint23_linear_2551_2430)"/>
<path opacity="0.1" d="M141.092 613.999L129.304 699.047H81.9688C100.28 686.128 129.483 659.274 141.092 613.999Z" fill="black"/>
<defs>
<linearGradient id="paint0_linear_2551_2430" x1="-2.79325" y1="96.6585" x2="837.793" y2="937.245" gradientUnits="userSpaceOnUse">
<stop stop-color="#1268FB"/>
<stop offset="0.5" stop-color="#1268FB"/>
<stop offset="1" stop-color="#010E37" stop-opacity="0.8"/>
</linearGradient>
<linearGradient id="paint1_linear_2551_2430" x1="425.997" y1="714.597" x2="425.997" y2="322.254" gradientUnits="userSpaceOnUse">
<stop stop-color="#D3E9FE"/>
<stop offset="1" stop-color="#E9F6FF"/>
</linearGradient>
<linearGradient id="paint2_linear_2551_2430" x1="556.932" y1="306.519" x2="466.286" y2="275.988" gradientUnits="userSpaceOnUse">
<stop stop-color="#DCE9FF"/>
<stop offset="1" stop-color="#B6D2FF"/>
</linearGradient>
<linearGradient id="paint3_linear_2551_2430" x1="402.918" y1="250.53" x2="388.66" y2="587.558" gradientUnits="userSpaceOnUse">
<stop stop-color="#DCE9FF"/>
<stop offset="1" stop-color="#B6D2FF"/>
</linearGradient>
<linearGradient id="paint4_linear_2551_2430" x1="469.744" y1="247.376" x2="494.683" y2="594.931" gradientUnits="userSpaceOnUse">
<stop stop-color="#DCE9FF"/>
<stop offset="1" stop-color="#B6D2FF"/>
</linearGradient>
<linearGradient id="paint5_linear_2551_2430" x1="598.603" y1="242.48" x2="512.443" y2="287.38" gradientUnits="userSpaceOnUse">
<stop stop-color="#2B233C"/>
<stop offset="1" stop-color="#635C70"/>
</linearGradient>
<linearGradient id="paint6_linear_2551_2430" x1="288.656" y1="677.12" x2="698.807" y2="677.12" gradientUnits="userSpaceOnUse">
<stop stop-color="#2B233C"/>
<stop offset="1" stop-color="#635C70"/>
</linearGradient>
<linearGradient id="paint7_linear_2551_2430" x1="127.684" y1="677.12" x2="295.241" y2="677.12" gradientUnits="userSpaceOnUse">
<stop stop-color="#2B233C"/>
<stop offset="1" stop-color="#635C70"/>
</linearGradient>
<linearGradient id="paint8_linear_2551_2430" x1="277.285" y1="399.31" x2="748.838" y2="399.31" gradientUnits="userSpaceOnUse">
<stop stop-color="#2B233C"/>
<stop offset="1" stop-color="#635C70"/>
</linearGradient>
<linearGradient id="paint9_linear_2551_2430" x1="82.8008" y1="399.31" x2="294.042" y2="399.31" gradientUnits="userSpaceOnUse">
<stop stop-color="#2B233C"/>
<stop offset="1" stop-color="#635C70"/>
</linearGradient>
<linearGradient id="paint10_linear_2551_2430" x1="352.962" y1="528.892" x2="476.88" y2="528.892" gradientUnits="userSpaceOnUse">
<stop stop-color="#E3356F"/>
<stop offset="1" stop-color="#E882AC"/>
</linearGradient>
<linearGradient id="paint11_linear_2551_2430" x1="667.013" y1="360.386" x2="692.631" y2="658.658" gradientUnits="userSpaceOnUse">
<stop stop-color="#29056B"/>
<stop offset="1" stop-color="#6C93F5"/>
</linearGradient>
<linearGradient id="paint12_linear_2551_2430" x1="627.91" y1="357.987" x2="697.933" y2="271.785" gradientUnits="userSpaceOnUse">
<stop stop-color="#E3356F"/>
<stop offset="1" stop-color="#E882AC"/>
</linearGradient>
<linearGradient id="paint13_linear_2551_2430" x1="185.442" y1="324.258" x2="167.247" y2="324.258" gradientUnits="userSpaceOnUse">
<stop stop-color="#1C59EB"/>
<stop offset="1" stop-color="#6AF2ED"/>
</linearGradient>
<linearGradient id="paint14_linear_2551_2430" x1="163.446" y1="366.959" x2="114.6" y2="294.527" gradientUnits="userSpaceOnUse">
<stop stop-color="#1C59EB"/>
<stop offset="1" stop-color="#6AF2ED"/>
</linearGradient>
<linearGradient id="paint15_linear_2551_2430" x1="185.727" y1="344.372" x2="161.495" y2="344.372" gradientUnits="userSpaceOnUse">
<stop stop-color="#2F0A6E"/>
<stop offset="1" stop-color="#5B24B9"/>
</linearGradient>
<linearGradient id="paint16_linear_2551_2430" x1="147.373" y1="313.21" x2="97.3384" y2="313.21" gradientUnits="userSpaceOnUse">
<stop stop-color="#2F0A6E"/>
<stop offset="1" stop-color="#5B24B9"/>
</linearGradient>
<linearGradient id="paint17_linear_2551_2430" x1="175.602" y1="375.478" x2="150.004" y2="375.478" gradientUnits="userSpaceOnUse">
<stop stop-color="#E3356F"/>
<stop offset="1" stop-color="#E882AC"/>
</linearGradient>
<linearGradient id="paint18_linear_2551_2430" x1="105.478" y1="525.794" x2="149.899" y2="410.027" gradientUnits="userSpaceOnUse">
<stop stop-color="#1C59EB"/>
<stop offset="1" stop-color="#6AF2ED"/>
</linearGradient>
<linearGradient id="paint19_linear_2551_2430" x1="123.865" y1="516.575" x2="208.491" y2="516.575" gradientUnits="userSpaceOnUse">
<stop stop-color="#1C59EB"/>
<stop offset="1" stop-color="#6AF2ED"/>
</linearGradient>
<linearGradient id="paint20_linear_2551_2430" x1="90.799" y1="544.431" x2="35.1894" y2="486.73" gradientUnits="userSpaceOnUse">
<stop stop-color="#1C59EB"/>
<stop offset="1" stop-color="#6AF2ED"/>
</linearGradient>
<linearGradient id="paint21_linear_2551_2430" x1="72.8847" y1="577.523" x2="23.1734" y2="569.233" gradientUnits="userSpaceOnUse">
<stop stop-color="#1C59EB"/>
<stop offset="1" stop-color="#6AF2ED"/>
</linearGradient>
<linearGradient id="paint22_linear_2551_2430" x1="115.865" y1="578.299" x2="167.138" y2="578.299" gradientUnits="userSpaceOnUse">
<stop stop-color="#1C59EB"/>
<stop offset="1" stop-color="#6AF2ED"/>
</linearGradient>
<linearGradient id="paint23_linear_2551_2430" x1="69.9235" y1="656.445" x2="141.141" y2="656.445" gradientUnits="userSpaceOnUse">
<stop stop-color="#E3356F"/>
<stop offset="1" stop-color="#E882AC"/>
</linearGradient>
<clipPath id="clip0_2551_2430">
<rect width="833" height="848.173" fill="white" transform="translate(1 92.8652)"/>
</clipPath>
<clipPath id="clip1_2551_2430">
<rect width="833" height="644.009" fill="white" transform="translate(1 194.947)"/>
</clipPath>
</defs>
</svg>
